<svg width="48" height="48" viewBox="0 0 48 48" fill="none" xmlns="http://www.w3.org/2000/svg">
<path d="M43.2005 40.7981H4.89768C3.57228 40.7981 2.49768 39.7235 2.49768 38.3981V9.59995C2.49768 8.27455 3.57228 7.19995 4.89768 7.19995H43.2005C44.5259 7.19995 45.6005 8.27455 45.6005 9.59995V38.3981C45.6005 39.7235 44.5259 40.7981 43.2005 40.7981ZM43.1969 9.59995H4.79928V38.4H43.1969V9.59995Z" fill="#00081C"/>
<path d="M12.3409 13.461L13.3099 16.5738L16.4299 16.5786C16.7773 16.5786 16.9219 17.0454 16.6411 17.2602L14.1199 19.1892L15.0793 22.305C15.1861 22.6518 14.8081 22.9404 14.5267 22.7262L11.9995 20.8056L9.47227 22.7262C9.19087 22.9404 8.81287 22.6518 8.91967 22.305L9.87907 19.1892L7.35787 17.2602C7.07707 17.0454 7.22167 16.5792 7.56907 16.5786L10.6891 16.5738L11.6581 13.461C11.7661 13.1142 12.2335 13.1142 12.3415 13.461H12.3409Z" fill="#00081C"/>
<path d="M36.3409 13.461L37.3099 16.5738L40.4299 16.5786C40.7773 16.5786 40.9219 17.0454 40.6411 17.2602L38.1199 19.1892L39.0793 22.305C39.1861 22.6518 38.8081 22.9404 38.5267 22.7262L35.9995 20.8056L33.4723 22.7262C33.1909 22.9404 32.8129 22.6518 32.9197 22.305L33.8791 19.1892L31.3579 17.2602C31.0771 17.0454 31.2217 16.5792 31.5691 16.5786L34.6891 16.5738L35.6581 13.461C35.7661 13.1142 36.2335 13.1142 36.3415 13.461H36.3409Z" fill="#00081C"/>
<path d="M24.3409 13.461L25.3099 16.5738L28.4299 16.5786C28.7773 16.5786 28.9219 17.0454 28.6411 17.2602L26.1199 19.1892L27.0793 22.305C27.1861 22.6518 26.8081 22.9404 26.5267 22.7262L23.9995 20.8056L21.4723 22.7262C21.1909 22.9404 20.8129 22.6518 20.9197 22.305L21.8791 19.1892L19.3579 17.2602C19.0771 17.0454 19.2217 16.5792 19.5691 16.5786L22.6891 16.5738L23.6581 13.461C23.7661 13.1142 24.2335 13.1142 24.3415 13.461H24.3409Z" fill="#00081C"/>
<path d="M30.3409 25.4603L31.3099 28.5731L34.4299 28.5779C34.7773 28.5779 34.9219 29.0447 34.6411 29.2595L32.1199 31.1885L33.0793 34.3043C33.1861 34.6511 32.8081 34.9397 32.5267 34.7255L29.9995 32.8049L27.4723 34.7255C27.1909 34.9397 26.8129 34.6511 26.9197 34.3043L27.8791 31.1885L25.3579 29.2595C25.0771 29.0447 25.2217 28.5785 25.5691 28.5779L28.6891 28.5731L29.6581 25.4603C29.7661 25.1135 30.2335 25.1135 30.3415 25.4603H30.3409Z" fill="#00081C"/>
<path d="M18.3409 25.4603L19.3099 28.5731L22.4299 28.5779C22.7773 28.5779 22.9219 29.0447 22.6411 29.2595L20.1199 31.1885L21.0793 34.3043C21.1861 34.6511 20.8081 34.9397 20.5267 34.7255L17.9995 32.8049L15.4723 34.7255C15.1909 34.9397 14.8129 34.6511 14.9197 34.3043L15.8791 31.1885L13.3579 29.2595C13.0771 29.0447 13.2217 28.5785 13.5691 28.5779L16.6891 28.5731L17.6581 25.4603C17.7661 25.1135 18.2335 25.1135 18.3415 25.4603H18.3409Z" fill="#00081C"/>
</svg>
