<svg width="25" height="24" viewBox="0 0 25 24" fill="none" xmlns="http://www.w3.org/2000/svg">
<g id="Functional-/-Outlined-/-Arrow-/-Right">
<g id="arrow-right">
<path id="Path" fill-rule="evenodd" clip-rule="evenodd" d="M20.795 12.38C20.895 12.1366 20.895 11.8635 20.795 11.62C20.7474 11.4973 20.676 11.3851 20.585 11.29L13.585 4.29003C13.3313 4.03637 12.9616 3.9373 12.6151 4.03015C12.2686 4.12299 11.998 4.39364 11.9051 4.74015C11.8123 5.08665 11.9113 5.45637 12.165 5.71003L17.465 11H5.875C5.32272 11 4.875 11.4477 4.875 12C4.875 12.5523 5.32272 13 5.875 13H17.465L12.165 18.29C11.9757 18.4778 11.8692 18.7334 11.8692 19C11.8692 19.2667 11.9757 19.5223 12.165 19.71C12.3528 19.8993 12.6084 20.0058 12.875 20.0058C13.1416 20.0058 13.3972 19.8993 13.585 19.71L20.585 12.71C20.676 12.6149 20.7474 12.5028 20.795 12.38Z" fill="#06757F"/>
</g>
</g>
</svg>
