<svg width="48" height="48" viewBox="0 0 48 48" fill="none" xmlns="http://www.w3.org/2000/svg">
<path d="M44.604 15.5256L29.106 7.20901C28.9134 7.09081 28.6704 7.09081 28.4778 7.20901L13.0746 15.4878C12.7926 15.6612 12.7044 16.0308 12.8778 16.3134L13.5066 17.3352C13.68 17.6172 14.0496 17.7054 14.3322 17.532L15.5922 16.7568V22.2246C15.5922 22.5558 15.861 22.8246 16.1922 22.8246H17.3922C17.7234 22.8246 17.9922 22.5558 17.9922 22.2246V15.2796L28.7928 9.83281L39.5922 15.2646V38.4198H36.5838C36.2526 38.4198 35.9838 38.6886 35.9838 39.0198V40.2198C35.9838 40.551 36.2526 40.8198 36.5838 40.8198H41.3922C41.7234 40.8198 41.9922 40.551 41.9922 40.2198V16.7382L43.3476 17.5704C43.6302 17.7438 43.9992 17.6556 44.1726 17.373L44.8008 16.3506C44.9742 16.068 44.886 15.699 44.6034 15.5256H44.604Z" fill="#00081C"/>
<path d="M31.6692 33.03L28.1268 31.1706L25.7148 28.6572C23.6118 26.466 20.6796 25.209 17.6688 25.209H13.335C10.8156 25.209 8.3394 26.0844 6.3624 27.6738L4.845 29.0292C3.3444 30.372 2.4834 32.3076 2.4834 34.3398V36.6738C2.4834 38.6922 3.861 40.3884 5.7108 40.8462C6.228 42.6702 7.884 44.0082 9.8424 44.0082C11.8008 44.0082 13.4724 42.6576 13.9812 40.821H20.5104C21.0192 42.6576 22.6812 44.0082 24.6492 44.0082C26.6172 44.0082 28.2792 42.6576 28.788 40.821H30.1632C32.058 40.821 33.5994 39.2556 33.5994 37.3308V36.1674C33.5994 34.8402 32.8422 33.6114 31.6686 33.03H31.6692ZM17.6694 27.6354C20.0346 27.6354 22.3392 28.6236 23.9928 30.3468L25.0752 31.4748L17.493 31.4568L15.8052 27.6348H17.6694V27.6354ZM6.4356 30.8466L7.8804 29.5542C9.3888 28.35 11.2632 27.6726 13.1772 27.6372L14.8614 31.4508L5.889 31.4298C6.0534 31.221 6.2352 31.0254 6.4356 30.846V30.8466ZM9.843 41.5812C8.7954 41.5812 7.9428 40.71 7.9428 39.6384C7.9428 38.5668 8.7954 37.6956 9.843 37.6956C10.8906 37.6956 11.7432 38.5668 11.7432 39.6384C11.7432 40.71 10.8906 41.5812 9.843 41.5812ZM24.6498 41.5812C23.6022 41.5812 22.7496 40.71 22.7496 39.6384C22.7496 38.5668 23.6022 37.6956 24.6498 37.6956C25.6974 37.6956 26.55 38.5668 26.55 39.6384C26.55 40.71 25.6974 41.5812 24.6498 41.5812ZM31.2 37.3308C31.2 37.917 30.735 38.394 30.1638 38.394H28.7712C28.2426 36.5892 26.5956 35.2692 24.6498 35.2692C22.704 35.2692 21.057 36.5892 20.5284 38.394H13.9644C13.4358 36.5892 11.7888 35.2692 9.843 35.2692C7.8972 35.2692 6.3276 36.5286 5.7606 38.2686C5.235 37.9404 4.884 37.3482 4.884 36.6738V34.3398C4.884 34.1772 4.8924 34.0152 4.9092 33.855L28.1346 33.9096L30.5772 35.1918L30.609 35.208C30.9684 35.3832 31.2 35.76 31.2 36.168V37.3314V37.3308Z" fill="#00081C"/>
</svg>
