<svg width="48" height="48" viewBox="0 0 48 48" fill="none" xmlns="http://www.w3.org/2000/svg">
<path d="M17.0758 2.58606H44.8078C45.2578 2.58606 45.6238 2.95206 45.6238 3.40206V34.0561C45.6238 34.5061 45.2578 34.8721 44.8078 34.8721H17.0758C16.6258 34.8721 16.2598 34.5061 16.2598 34.0561V3.40806C16.2598 2.95206 16.6258 2.58606 17.0758 2.58606Z" fill="#FFD300"/>
<path d="M36.3005 32.238L32.1485 30.096L29.3225 27.204C28.1165 25.968 26.7005 25.002 25.1105 24.336C23.5205 23.664 21.8405 23.328 20.1125 23.328H15.0725C12.1865 23.328 9.35448 24.312 7.08648 26.1L7.06248 26.118L5.32848 27.642C3.62448 29.142 2.64648 31.302 2.64648 33.57V36.24C2.64648 38.496 4.24248 40.392 6.36048 40.854C6.90648 42.912 8.77848 44.436 11.0045 44.436C13.2545 44.436 15.1445 42.882 15.6665 40.794H23.5625C24.0845 42.882 25.9745 44.436 28.2245 44.436C30.4745 44.436 32.3645 42.882 32.8865 40.794H34.6385C36.7325 40.794 38.4365 39.09 38.4365 36.996V35.664C38.4425 34.212 37.6025 32.874 36.3005 32.238ZM20.1125 25.728C22.9145 25.728 25.6505 26.88 27.6125 28.884L29.1725 30.486L19.7765 30.462L17.6465 25.728H20.1125ZM6.91248 29.448L8.59848 27.966C10.4225 26.532 12.6965 25.74 15.0185 25.728L17.1425 30.456L6.03048 30.432C6.28248 30.072 6.57648 29.742 6.91248 29.448ZM11.0105 42.03C9.68448 42.03 8.60448 40.95 8.60448 39.624C8.60448 38.298 9.68448 37.218 11.0105 37.218C12.3365 37.218 13.4165 38.298 13.4165 39.624C13.4165 40.95 12.3365 42.03 11.0105 42.03ZM28.2305 42.03C26.9045 42.03 25.8245 40.95 25.8245 39.624C25.8245 38.298 26.9045 37.218 28.2305 37.218C29.5565 37.218 30.6365 38.298 30.6365 39.624C30.6365 40.95 29.5565 42.03 28.2305 42.03ZM36.0425 36.99C36.0425 37.764 35.4125 38.388 34.6445 38.388H32.8745C32.3285 36.336 30.4505 34.818 28.2305 34.818C26.0105 34.818 24.1325 36.336 23.5865 38.388H15.6545C15.1085 36.336 13.2305 34.818 11.0105 34.818C8.80848 34.818 6.94848 36.312 6.38448 38.334C5.59848 37.962 5.05248 37.164 5.05248 36.234V33.57C5.05248 33.318 5.07048 33.072 5.10048 32.826L32.3285 32.886L35.2145 34.374L35.2445 34.392C35.7305 34.626 36.0425 35.118 36.0425 35.652V36.99Z" fill="#00081C"/>
<path d="M41.7782 11.3701C41.5742 10.3261 41.1782 9.43207 40.6022 8.71807L40.1102 8.10007C39.8642 7.78807 39.3842 7.80007 39.1562 8.12407L36.8402 11.3461L36.0482 10.8121L38.3042 7.61407C38.5322 7.29607 38.3942 6.84607 38.0282 6.70807L37.3082 6.43207C36.3482 6.06007 35.2382 5.98207 34.0982 6.21007C32.3822 6.54607 30.9062 7.53007 29.9282 8.97607C28.9562 10.4281 28.6022 12.1681 28.9382 13.8841C29.0162 14.2801 29.1302 14.6641 29.2742 15.0361L25.3682 20.7901C25.1822 21.0661 25.2542 21.4381 25.5242 21.6241L26.5142 22.3021C26.7902 22.4881 27.1622 22.4161 27.3482 22.1461L32.0462 15.2281L31.7042 14.5861C31.5122 14.2261 31.3682 13.8301 31.2902 13.4221C31.0802 12.3361 31.3022 11.2321 31.9202 10.3141C32.5382 9.39607 33.4742 8.77207 34.5602 8.56207C34.6082 8.55007 34.6622 8.54407 34.7102 8.53807L33.0182 10.9321C32.8262 11.2081 32.8922 11.5861 33.1742 11.7781L36.9482 14.3161C37.2182 14.4961 37.5842 14.4301 37.7702 14.1661L39.4262 11.8561C39.6242 12.9061 39.4142 13.9741 38.8382 14.8681C38.2682 15.7501 37.3802 16.3861 36.3662 16.6381C35.8982 16.7521 35.4182 16.7881 34.9442 16.7401L34.2362 16.6681L29.7302 23.1841C29.5442 23.4601 29.6162 23.8321 29.8922 24.0181L30.8822 24.6901C31.1582 24.8761 31.5302 24.8041 31.7162 24.5341L35.4482 19.1581C35.8382 19.1521 36.2342 19.1101 36.6182 19.0381C38.3342 18.7021 39.8102 17.7181 40.7882 16.2721C41.7662 14.8261 42.1142 13.0801 41.7782 11.3701Z" fill="#00081C"/>
<path d="M11.2145 16.974C12.3065 18.504 13.8125 19.728 15.6905 20.61L15.9425 20.73C16.1045 20.808 16.2905 20.808 16.4525 20.73L16.7045 20.61C18.5825 19.728 20.0885 18.504 21.1805 16.974C22.0865 15.702 22.7045 14.22 23.0225 12.576C23.4545 10.332 23.1965 8.37602 23.0645 7.64402L23.0105 7.33202C22.9745 7.14002 22.8485 6.97202 22.6685 6.88802L16.4405 4.07402C16.2845 4.00202 16.1045 4.00202 15.9485 4.07402L9.72647 6.88802C9.54647 6.97202 9.42047 7.13402 9.38447 7.33202L9.33047 7.64402C9.19847 8.37602 8.94047 10.332 9.37247 12.576C9.68447 14.226 10.3085 15.702 11.2145 16.974ZM11.6045 8.67602L16.1945 6.60002L20.7845 8.67602C20.8685 9.44402 20.9285 10.728 20.6645 12.126C20.4125 13.434 19.9325 14.598 19.2245 15.588C18.4745 16.638 17.4545 17.514 16.1945 18.186C14.9345 17.508 13.9145 16.638 13.1645 15.588C12.4565 14.598 11.9765 13.434 11.7245 12.126C11.4605 10.722 11.5205 9.44402 11.6045 8.67602Z" fill="#00081C"/>
</svg>
