<svg width="48" height="27" viewBox="0 0 48 27" fill="none" xmlns="http://www.w3.org/2000/svg">
<path fill-rule="evenodd" clip-rule="evenodd" d="M39 10H38.2L36.35 2.41667C35.9414 0.987839 34.6362 0.00214675 33.15 0H14.8167C13.343 0.0168947 12.0553 0.999621 11.65 2.41667L9.80004 10H9.00004C8.07957 10 7.33337 10.7462 7.33337 11.6667V21.6667C7.33337 22.5871 8.07957 23.3333 9.00004 23.3333V24.1667C9.00004 25.5474 10.1193 26.6667 11.5 26.6667C12.8808 26.6667 14 25.5474 14 24.1667V23.3333H34V24.1667C34 25.5474 35.1193 26.6667 36.5 26.6667C37.8808 26.6667 39 25.5474 39 24.1667V23.3333C39.9205 23.3333 40.6667 22.5871 40.6667 21.6667V11.6667C40.6667 10.7462 39.9205 10 39 10ZM14.85 3.33333H33.1834L34.85 10H13.2334L14.85 3.33333ZM10.6667 13.3333H37.3334V20H10.6667V13.3333ZM14 18.3333C14.9205 18.3333 15.6667 17.5871 15.6667 16.6667C15.6667 15.7462 14.9205 15 14 15C13.0796 15 12.3334 15.7462 12.3334 16.6667C12.3334 17.5871 13.0796 18.3333 14 18.3333ZM34 18.3333C34.9205 18.3333 35.6667 17.5871 35.6667 16.6667C35.6667 15.7462 34.9205 15 34 15C33.0796 15 32.3334 15.7462 32.3334 16.6667C32.3334 17.5871 33.0796 18.3333 34 18.3333Z" fill="#2B2929"/>
<g clip-path="url(#clip0_62_2065)">
<path d="M8.66666 14.6667C8.66666 14.2985 8.36819 14 8 14C7.63181 14 7.33333 14.2985 7.33333 14.6667V17.3333C7.33333 17.7015 7.63181 18 8 18C8.36819 18 8.66666 17.7015 8.66666 17.3333V14.6667Z" fill="#2B2929"/>
<path d="M6.07837 13.2549C5.83212 13.0087 5.43784 12.9935 5.17333 13.22L3.28666 15.1067C3.02818 15.3667 3.02818 15.7866 3.28666 16.0467C3.54669 16.3051 3.96664 16.3051 4.22666 16.0467L6.11333 14.16C6.33985 13.8955 6.32462 13.5012 6.07837 13.2549Z" fill="#2B2929"/>
<path d="M5.33333 11.3333C5.33333 10.9651 5.03485 10.6667 4.66666 10.6667H1.99999C1.63181 10.6667 1.33333 10.9651 1.33333 11.3333C1.33333 11.7015 1.63181 12 1.99999 12H4.66666C5.03485 12 5.33333 11.7015 5.33333 11.3333Z" fill="#2B2929"/>
<path d="M4.22666 6.61999C3.96215 6.39347 3.56787 6.4087 3.32162 6.65495C3.07537 6.90119 3.06014 7.29548 3.28666 7.55999L5.17333 9.44666C5.43335 9.70514 5.8533 9.70514 6.11333 9.44666C6.37181 9.18663 6.37181 8.76668 6.11333 8.50666L4.22666 6.61999Z" fill="#2B2929"/>
<path d="M8.66666 5.33332C8.66666 4.96513 8.36819 4.66666 8 4.66666C7.63181 4.66666 7.33333 4.96513 7.33333 5.33332V7.99999C7.33333 8.36818 7.63181 8.66666 8 8.66666C8.36819 8.66666 8.66666 8.36818 8.66666 7.99999V5.33332Z" fill="#2B2929"/>
</g>
<path d="M39.3333 7.99997C39.3333 8.36816 39.6318 8.66663 40 8.66663C40.3682 8.66663 40.6667 8.36816 40.6667 7.99997L40.6667 5.3333C40.6667 4.96511 40.3682 4.66663 40 4.66663C39.6318 4.66663 39.3333 4.96511 39.3333 5.3333L39.3333 7.99997Z" fill="#2B2929"/>
<path d="M41.9216 9.41168C42.1679 9.65792 42.5622 9.67315 42.8267 9.44664L44.7133 7.55997C44.9718 7.29994 44.9718 6.87999 44.7133 6.61997C44.4533 6.36149 44.0334 6.36149 43.7733 6.61997L41.8867 8.50664C41.6602 8.77114 41.6754 9.16543 41.9216 9.41168Z" fill="#2B2929"/>
<path d="M42.6667 11.3333C42.6667 11.7015 42.9651 12 43.3333 12L46 12C46.3682 12 46.6667 11.7015 46.6667 11.3333C46.6667 10.9651 46.3682 10.6666 46 10.6666L43.3333 10.6666C42.9651 10.6666 42.6667 10.9651 42.6667 11.3333Z" fill="#2B2929"/>
<path d="M43.7733 16.0466C44.0378 16.2732 44.4321 16.2579 44.6784 16.0117C44.9246 15.7654 44.9399 15.3711 44.7133 15.1066L42.8267 13.22C42.5666 12.9615 42.1467 12.9615 41.8867 13.22C41.6282 13.48 41.6282 13.8999 41.8867 14.16L43.7733 16.0466Z" fill="#2B2929"/>
<path d="M39.3333 17.3333C39.3333 17.7015 39.6318 18 40 18C40.3682 18 40.6667 17.7015 40.6667 17.3333L40.6667 14.6666C40.6667 14.2984 40.3682 14 40 14C39.6318 14 39.3333 14.2984 39.3333 14.6666L39.3333 17.3333Z" fill="#2B2929"/>
<defs>
<clipPath id="clip0_62_2065">
<rect width="16" height="16" fill="white" transform="translate(0 3.33331)"/>
</clipPath>
</defs>
</svg>
