<svg width="34" height="45" viewBox="0 0 34 45" fill="none" xmlns="http://www.w3.org/2000/svg">
<path fill-rule="evenodd" clip-rule="evenodd" d="M31.6667 28.3078H30.8667L29.0167 20.7245C28.608 19.2956 27.3028 18.3099 25.8167 18.3078H7.48333C6.00959 18.3247 4.72188 19.3074 4.31667 20.7245L2.46667 28.3078H1.66667C0.746192 28.3078 0 29.054 0 29.9745V39.9745C0 40.8949 0.746192 41.6411 1.66667 41.6411V42.4745C1.66667 43.8552 2.78595 44.9745 4.16667 44.9745C5.54738 44.9745 6.66667 43.8552 6.66667 42.4745V41.6411H26.6667V42.4745C26.6667 43.8552 27.786 44.9745 29.1667 44.9745C30.5474 44.9745 31.6667 43.8552 31.6667 42.4745V41.6411C32.5871 41.6411 33.3333 40.8949 33.3333 39.9745V29.9745C33.3333 29.054 32.5871 28.3078 31.6667 28.3078ZM7.51667 21.6411H25.85L27.5167 28.3078H5.9L7.51667 21.6411ZM3.33333 31.6411H30V38.3078H3.33333V31.6411ZM6.66667 36.6411C7.58714 36.6411 8.33333 35.8949 8.33333 34.9745C8.33333 34.054 7.58714 33.3078 6.66667 33.3078C5.74619 33.3078 5 34.054 5 34.9745C5 35.8949 5.74619 36.6411 6.66667 36.6411ZM26.6667 36.6411C27.5871 36.6411 28.3333 35.8949 28.3333 34.9745C28.3333 34.054 27.5871 33.3078 26.6667 33.3078C25.7462 33.3078 25 34.054 25 34.9745C25 35.8949 25.7462 36.6411 26.6667 36.6411Z" fill="#2B2929"/>
<path d="M9.89672 4.92801C9.21729 4.92801 8.6665 5.4788 8.6665 6.15823C8.6665 6.83766 9.21729 7.38845 9.89672 7.38845L20.4643 7.38845L17.6348 10.2057C17.3228 10.5177 17.2009 10.9725 17.3151 11.3988C17.4293 11.8251 17.7623 12.1581 18.1886 12.2723C18.6148 12.3865 19.0697 12.2646 19.3817 11.9526L24.3026 7.03168C24.5355 6.80069 24.6665 6.48625 24.6665 6.15823C24.6665 5.83021 24.5355 5.51577 24.3026 5.28477L19.3817 0.363892C19.1507 0.130996 18.8363 -6.16658e-06 18.5083 -6.15224e-06C18.1802 -6.1379e-06 17.8658 0.130996 17.6348 0.363892C17.4019 0.594886 17.2709 0.909324 17.2709 1.23735C17.2709 1.56537 17.4019 1.87981 17.6348 2.1108L20.4643 4.92801L9.89672 4.92801Z" fill="#2B2929"/>
</svg>
