<svg width="66" height="65" viewBox="0 0 66 65" fill="none" xmlns="http://www.w3.org/2000/svg">
<circle cx="33" cy="32.5" r="32.5" fill="#00081C"/>
<g clip-path="url(#clip0_1537_5513)">
<path fill-rule="evenodd" clip-rule="evenodd" d="M33.9584 19.375C30.1787 19.3759 26.6337 21.2077 24.4464 24.2902C22.2591 27.3727 21.7007 31.3237 22.948 34.8917L19.623 42.7083C19.1796 43.4921 19.2978 44.4731 19.9146 45.1292C20.2693 45.4848 20.7541 45.6798 21.2563 45.6688C21.6183 45.6466 21.9714 45.5472 22.2917 45.3771L30.0646 42.0521C34.4395 43.5848 39.3068 42.3821 42.4642 38.988C45.6216 35.594 46.47 30.6526 44.6256 26.3997C42.7812 22.1469 38.5939 19.3894 33.9584 19.375ZM33.9584 39.7917C32.8241 39.7901 31.7006 39.5723 30.648 39.15C30.4584 39.0625 30.2688 38.9896 30.0938 38.8875L26.8417 40.3458L23.1375 41.8625L24.7125 38.1583L26.1709 34.9062C26.0688 34.7312 25.9959 34.5417 25.9084 34.3521C25.4661 33.3033 25.2285 32.1797 25.2084 31.0417C25.2084 26.2092 29.1259 22.2917 33.9584 22.2917C38.7909 22.2917 42.7084 26.2092 42.7084 31.0417C42.7084 35.8742 38.7909 39.7917 33.9584 39.7917Z" fill="white"/>
</g>
<defs>
<clipPath id="clip0_1537_5513">
<rect width="35" height="35" fill="white" transform="translate(15 15)"/>
</clipPath>
</defs>
</svg>
