<svg width="24" height="24" viewBox="0 0 24 24" fill="none" xmlns="http://www.w3.org/2000/svg">
<path fill-rule="evenodd" clip-rule="evenodd" d="M12.0002 3.99995C15.8166 4.003 19.0995 6.70136 19.8413 10.445C20.5831 14.1886 18.5773 17.935 15.0504 19.3931C11.5235 20.8512 7.45777 19.615 5.33942 16.4405C3.22108 13.2659 3.64008 9.03712 6.3402 6.34C7.83864 4.8354 9.87673 3.99279 12.0002 3.99995ZM12.0002 2C7.22939 1.99898 3.12226 5.36821 2.19059 10.0472C1.25893 14.7261 3.76223 19.4116 8.16954 21.2381C12.5769 23.0646 17.6607 21.5234 20.3118 17.5571C22.963 13.5908 22.4432 8.30398 19.0702 4.93C17.1953 3.05451 14.6521 2.00057 12.0002 2ZM16.2102 9.09C16.0224 8.90069 15.7668 8.7942 15.5002 8.7942C15.2336 8.7942 14.978 8.90069 14.7902 9.09L10.3702 13.52L9.0702 12.23C8.67344 11.8902 8.082 11.9131 7.71263 12.2824C7.34326 12.6518 7.32042 13.2432 7.6602 13.64L9.6602 15.64C10.0502 16.0277 10.6802 16.0277 11.0702 15.64L16.2102 10.51C16.3995 10.3222 16.506 10.0666 16.506 9.8C16.506 9.53336 16.3995 9.27777 16.2102 9.09Z" fill="#00081C"/>
</svg>
