<svg width="49" height="49" viewBox="0 0 49 49" fill="none" xmlns="http://www.w3.org/2000/svg">
<path d="M6.3167 11.0415H5.48677C5.14806 11.0415 4.87427 11.3159 4.87427 11.6547L4.89264 34.9131C4.89264 35.2512 5.16704 35.525 5.50514 35.525H9.99109C10.5203 37.6479 12.4423 39.2251 14.7269 39.2251C17.0116 39.2251 18.9336 37.6473 19.4628 35.525H29.536C30.0652 37.6479 31.9872 39.2251 34.2718 39.2251C36.5564 39.2251 38.4779 37.6473 39.0077 35.525H42.7182C44.1533 35.525 45.317 34.3612 45.317 32.9262V25.51C45.317 24.5649 44.9557 23.656 44.3076 22.9688L34.4678 12.5354C33.5693 11.5824 32.3173 11.0422 31.0072 11.0422H6.3167V11.0415ZM32.8955 14.4379L39.0089 20.9206H29.4184V13.4922H30.7028C31.5327 13.4922 32.3259 13.8345 32.8955 14.4385V14.4379ZM14.7269 36.7751C13.3868 36.7751 12.2959 35.6849 12.2959 34.3441C12.2959 33.0033 13.3862 31.9131 14.7269 31.9131C16.0677 31.9131 17.158 33.0033 17.158 34.3441C17.158 35.6849 16.0677 36.7751 14.7269 36.7751ZM34.2724 36.7751C32.9323 36.7751 31.8414 35.6849 31.8414 34.3441C31.8414 33.0033 32.9317 31.9131 34.2724 31.9131C35.6132 31.9131 36.7034 33.0033 36.7034 34.3441C36.7034 35.6849 35.6132 36.7751 34.2724 36.7751ZM41.767 33.075H38.9844C38.424 30.9974 36.524 29.4631 34.2718 29.4631C32.0197 29.4631 30.1197 30.9968 29.5592 33.075H19.4395C18.8791 30.9974 16.9791 29.4631 14.7269 29.4631C12.4748 29.4631 10.5748 30.9968 10.0144 33.075H7.3408L7.32488 13.4915H26.9671V22.7574C26.9671 23.0955 27.2415 23.3699 27.5796 23.3699H41.3186L42.2251 24.3309C42.6373 24.7677 42.8664 25.3452 42.8664 25.9461V26.9745H39.8119C39.4738 26.9745 39.1994 27.2489 39.1994 27.587V28.812C39.1994 29.1501 39.4738 29.4245 39.8119 29.4245H42.8664V31.9737C42.8664 32.5813 42.374 33.0738 41.7664 33.0738L41.767 33.075Z" fill="#00081C"/>
</svg>
