<svg width="48" height="48" viewBox="0 0 48 48" fill="none" xmlns="http://www.w3.org/2000/svg">
<path d="M22.2 14.4H3.00002C2.66865 14.4 2.40002 14.6686 2.40002 15V27C2.40002 27.3314 2.66865 27.6 3.00002 27.6H22.2C22.5314 27.6 22.8 27.3314 22.8 27V15C22.8 14.6686 22.5314 14.4 22.2 14.4Z" fill="#FFD300"/>
<path d="M6.18778 10.8162H5.37478C5.04298 10.8162 4.77478 11.085 4.77478 11.4168L4.79278 34.2006C4.79278 34.5318 5.06158 34.8 5.39278 34.8H9.78718C10.3056 36.8796 12.1884 38.4246 14.4264 38.4246C16.6644 38.4246 18.5472 36.879 19.0656 34.8H28.9332C29.4516 36.8796 31.3344 38.4246 33.5724 38.4246C35.8104 38.4246 37.6926 36.879 38.2116 34.8H41.8464C43.2522 34.8 44.3922 33.66 44.3922 32.2542V24.9894C44.3922 24.0636 44.0382 23.1732 43.4034 22.5L33.7644 12.2796C32.8842 11.346 31.6578 10.8168 30.3744 10.8168H6.18778V10.8162ZM32.2242 14.1432L38.2128 20.4936H28.818V13.2168H30.0762C30.8892 13.2168 31.6662 13.5522 32.2242 14.1438V14.1432ZM14.4264 36.0246C13.1136 36.0246 12.045 34.9566 12.045 33.6432C12.045 32.3298 13.113 31.2618 14.4264 31.2618C15.7398 31.2618 16.8078 32.3298 16.8078 33.6432C16.8078 34.9566 15.7398 36.0246 14.4264 36.0246ZM33.573 36.0246C32.2602 36.0246 31.1916 34.9566 31.1916 33.6432C31.1916 32.3298 32.2596 31.2618 33.573 31.2618C34.8864 31.2618 35.9544 32.3298 35.9544 33.6432C35.9544 34.9566 34.8864 36.0246 33.573 36.0246ZM40.9146 32.4H38.1888C37.6398 30.3648 35.7786 28.8618 33.5724 28.8618C31.3662 28.8618 29.505 30.3642 28.956 32.4H19.0428C18.4938 30.3648 16.6326 28.8618 14.4264 28.8618C12.2202 28.8618 10.359 30.3642 9.80998 32.4H7.19098L7.17538 13.2162H26.4168V22.293C26.4168 22.6242 26.6856 22.893 27.0168 22.893H40.4754L41.3634 23.8344C41.7672 24.2622 41.9916 24.828 41.9916 25.4166V26.424H38.9994C38.6682 26.424 38.3994 26.6928 38.3994 27.024V28.224C38.3994 28.5552 38.6682 28.824 38.9994 28.824H41.9916V31.3212C41.9916 31.9164 41.5092 32.3988 40.914 32.3988L40.9146 32.4Z" fill="#00081C"/>
</svg>
