<?xml version="1.0" encoding="UTF-8"?>
<svg width="150px" height="150px" viewBox="0 0 150 150" version="1.1" xmlns="http://www.w3.org/2000/svg" xmlns:xlink="http://www.w3.org/1999/xlink">
    <!-- Generator: Sketch 58 (84663) - https://sketch.com -->
    <title>courtesy-car</title>
    <desc>Created with Sketch.</desc>
    <g id="courtesy-car" stroke="none" stroke-width="1" fill="none" fill-rule="evenodd">
        <path d="M144.39986,93.46625 L144.05286,96.47325 C143.95786,97.30125 143.49486,97.99625 142.90286,98.20225 L136.89986,100.29825 C136.90586,100.10925 136.92786,99.92525 136.92786,99.73525 C136.92786,90.90525 129.74486,83.72325 120.91686,83.72325 C112.08786,83.72325 104.90586,90.90525 104.90586,99.73525 C104.90586,100.36325 104.95086,100.98025 105.02186,101.59025 L44.7538604,101.59025 C44.8248604,100.98025 44.8698604,100.36325 44.8698604,99.73525 C44.8698604,90.90525 37.6878604,83.72325 28.8588604,83.72325 C20.0298604,83.72325 12.8468604,90.90525 12.8468604,99.73525 C12.8468604,100.00225 12.8738604,100.26425 12.8868604,100.52825 L10.7138604,99.81125 C6.79086043,98.07825 4.48986043,93.25225 5.23586043,88.29525 L5.97986043,83.35825 C6.36586043,80.79925 6.30386043,78.21925 5.79586043,75.68925 L5.03186043,71.87525 C4.90786043,71.25825 5.15586043,70.70325 5.45186043,70.49525 C6.35086043,69.86625 7.16786043,69.28725 7.95686043,68.73025 C9.37986043,67.72325 10.7498604,66.75625 12.3168604,65.68525 L27.5638604,78.63925 C27.9368604,78.95625 28.3978604,79.11425 28.8588604,79.11425 C29.3198604,79.11425 29.7808604,78.95625 30.1538604,78.63925 L46.8168604,64.48225 C50.1968604,61.61025 52.1598604,57.45425 52.2688604,53.03425 C60.6158604,52.74725 67.9448604,53.26025 74.5938604,54.61625 C83.6278604,56.45725 92.4448604,60.26225 100.09086,65.61725 C100.09586,65.62125 100.09986,65.62425 100.10486,65.62725 C100.23686,65.71925 102.30286,67.16625 102.30286,67.16625 C106.48786,70.09825 111.36486,72.09025 116.40686,72.92725 L120.72386,73.64425 C127.64986,74.79325 134.31486,77.28625 140.57986,81.08225 C142.25786,82.09825 143.18586,84.39225 142.83686,86.65725 L142.69486,87.58125 C142.47386,89.00925 142.89986,90.47425 143.83186,91.50025 C144.26686,91.97925 144.48486,92.73225 144.39986,93.46625 Z M120.91686,111.74625 C114.29386,111.74625 108.90586,106.35825 108.90586,99.73525 C108.90586,93.11125 114.29386,87.72325 120.91686,87.72325 C127.53986,87.72325 132.92786,93.11125 132.92786,99.73525 C132.92786,106.35825 127.53986,111.74625 120.91686,111.74625 Z M28.8588604,111.74625 C22.2358604,111.74625 16.8468604,106.35825 16.8468604,99.73525 C16.8468604,93.11125 22.2358604,87.72325 28.8588604,87.72325 C35.4818604,87.72325 40.8698604,93.11125 40.8698604,99.73525 C40.8698604,106.35825 35.4818604,111.74625 28.8588604,111.74625 Z M9.42686043,37.62525 C12.9038604,37.16325 16.2788604,36.25425 19.4858604,34.94225 L35.3068604,68.87025 C35.3228604,68.90425 35.3488604,68.92825 35.3668604,68.96125 L28.8588604,74.49025 L13.4908604,61.43325 C10.9088604,59.23825 9.42686043,56.03625 9.42686043,52.64925 L9.42686043,37.62525 Z M28.8588604,29.56125 C34.5178604,33.90425 41.1988604,36.68125 48.2898604,37.62425 L48.2898604,52.64925 C48.2898604,56.03725 46.8088604,59.23925 44.2268604,61.43325 L38.5148604,66.28625 L23.1018604,33.23325 C25.1098604,32.17025 27.0408604,30.95625 28.8588604,29.56125 Z M146.64786,88.19225 L146.78986,87.26825 C147.38886,83.38325 145.72586,79.52225 142.60586,77.63225 C135.95086,73.60125 128.80886,70.93125 121.37886,69.69825 L117.06186,68.98225 C112.60586,68.24125 108.29586,66.48225 104.59786,63.89125 C103.46586,63.09825 102.80386,62.63425 102.37086,62.36225 L102.38586,62.34225 C94.2938604,56.67425 84.9598604,52.64725 75.3928604,50.69625 C68.4738604,49.28725 60.8938604,48.74925 52.2898604,49.03225 L52.2898604,35.86225 C52.2898604,34.85525 51.5408604,34.00525 50.5408604,33.87825 L49.0518604,33.69025 C42.0788604,32.80825 35.5388604,29.96325 30.1388604,25.46425 C29.3968604,24.84525 28.3208604,24.84525 27.5778604,25.46425 C22.1788604,29.96325 15.6398604,32.80825 8.66986043,33.69025 L7.17686043,33.87825 C6.17686043,34.00425 5.42686043,34.85525 5.42686043,35.86225 L5.42686043,52.64925 C5.42686043,56.45625 6.83186043,60.07725 9.31286043,62.89425 C8.02486043,63.78225 6.85686043,64.60825 5.64686043,65.46425 C4.86286043,66.01925 4.04986043,66.59425 3.15686043,67.22025 C1.50986043,68.37525 0.686860426,70.56325 1.10986043,72.66325 L1.87386043,76.47625 C2.28986043,78.54925 2.33986043,80.66425 2.02486043,82.76225 L1.28086043,87.69925 C0.262860426,94.45725 3.59886043,101.11025 9.21086043,103.51925 C9.26386043,103.54125 9.31886043,103.56225 9.37186043,103.58025 L13.7668604,105.03225 C15.9608604,111.26225 21.8878604,115.74625 28.8588604,115.74625 C35.6198604,115.74625 41.4018604,111.52825 43.7458604,105.59025 L106.02986,105.59025 C108.37386,111.52825 114.15586,115.74625 120.91686,115.74625 C127.96686,115.74625 133.95486,111.16025 136.08686,104.81925 L144.22086,101.98025 C146.26086,101.26825 147.75486,99.28625 148.02786,96.93225 L148.37386,93.92325 C148.58986,92.04825 147.99786,90.13625 146.79086,88.80925 C146.69286,88.70025 146.60586,88.46125 146.64786,88.19225 L146.64786,88.19225 Z" id="BEAM-ICONS-34" fill="#1D1F1E"></path>
    </g>
</svg>