<svg width="24" height="24" viewBox="0 0 24 24" fill="none" xmlns="http://www.w3.org/2000/svg">
<path fill-rule="evenodd" clip-rule="evenodd" d="M12.0002 3.99995C15.8166 4.003 19.0995 6.70136 19.8413 10.445C20.5831 14.1886 18.5773 17.935 15.0504 19.3931C11.5235 20.8512 7.45777 19.615 5.33942 16.4405C3.22108 13.2659 3.64008 9.03712 6.3402 6.34C7.83864 4.8354 9.87673 3.99279 12.0002 3.99995ZM12.0002 2C7.22939 1.99898 3.12226 5.36821 2.19059 10.0472C1.25893 14.7261 3.76223 19.4116 8.16954 21.2381C12.5769 23.0646 17.6607 21.5234 20.3118 17.5571C22.963 13.5908 22.4432 8.30398 19.0702 4.93C17.1953 3.05451 14.6521 2.00057 12.0002 2ZM13.4102 12L15.5402 9.88C15.9323 9.48788 15.9323 8.85212 15.5402 8.46C15.1481 8.06788 14.5123 8.06788 14.1202 8.46L12.0002 10.59L9.8802 8.46C9.48807 8.06788 8.85232 8.06788 8.4602 8.46C8.06807 8.85212 8.06807 9.48788 8.4602 9.88L10.5902 12L8.4602 14.12C8.27088 14.3078 8.1644 14.5634 8.1644 14.83C8.1644 15.0966 8.27088 15.3522 8.4602 15.54C8.64892 15.7272 8.90439 15.8315 9.1702 15.83C9.436 15.8315 9.69148 15.7272 9.8802 15.54L12.0002 13.41L14.1202 15.54C14.3089 15.7272 14.5644 15.8315 14.8302 15.83C15.096 15.8315 15.3515 15.7272 15.5402 15.54C15.7295 15.3522 15.836 15.0966 15.836 14.83C15.836 14.5634 15.7295 14.3078 15.5402 14.12L13.4102 12Z" fill="#00081C"/>
</svg>
