<svg width="20" height="34" viewBox="0 0 20 34" fill="none" xmlns="http://www.w3.org/2000/svg">
<path fill-rule="evenodd" clip-rule="evenodd" d="M11 18.5C11.8284 18.5 12.5 19.1716 12.5 20C12.5 20.8284 11.8284 21.5 11 21.5C11 21.5 8.15685 21.5 6.5 21.5C4.84315 21.5 3.5 22.8431 3.5 24.5V29C3.5 29.8284 2.82843 30.5 2 30.5C1.17157 30.5 0.5 29.8284 0.5 29V24.5C0.5 21.1863 3.18629 18.5 6.5 18.5H11ZM12.5 0.5C14.4891 0.5 16.3968 1.29018 17.8033 2.6967C19.2098 4.10322 20 6.01088 20 8C20 12.1421 16.6421 15.5 12.5 15.5C8.35786 15.5 5 12.1421 5 8C5 3.85786 8.35786 0.5 12.5 0.5ZM12.5 3.5C10.0147 3.5 8 5.51472 8 8C8 10.4853 10.0147 12.5 12.5 12.5C14.9853 12.5 17 10.4853 17 8C17 5.51472 14.9853 3.5 12.5 3.5Z" fill="#2B2929"/>
<rect x="17.0332" y="17.8376" width="3" height="16.6959" rx="1.5" transform="rotate(31.4078 17.0332 17.8376)" fill="#2B2929"/>
</svg>
