<svg width="48" height="48" viewBox="0 0 48 48" fill="none" xmlns="http://www.w3.org/2000/svg">
<path d="M32.9999 15.6H32.3147C31.7333 11.532 28.2263 8.39404 23.9999 8.39404C19.7735 8.39404 16.2665 11.5314 15.6851 15.6H14.9999C14.6687 15.6 14.3999 15.8688 14.3999 16.2V19.8C14.3999 20.1312 14.6687 20.4 14.9999 20.4H16.4141C17.7659 23.2326 20.6579 25.194 23.9999 25.194C27.3419 25.194 30.2339 23.232 31.5857 20.4H32.9999C33.3311 20.4 33.5999 20.1312 33.5999 19.8V16.2C33.5999 15.8688 33.3311 15.6 32.9999 15.6ZM23.9999 22.794C22.0439 22.794 20.3033 21.8532 19.2077 20.4H23.3999C23.7311 20.4 23.9999 20.1312 23.9999 19.8V18.6C23.9999 18.2688 23.7311 18 23.3999 18H18.1217C18.0419 17.6106 17.9999 17.2068 17.9999 16.794C17.9999 13.4856 20.6915 10.794 23.9999 10.794C27.3083 10.794 29.9999 13.4856 29.9999 16.794C29.9999 20.1024 27.3083 22.794 23.9999 22.794Z" fill="#00081C"/>
<path d="M44.1642 31.7736C43.9308 31.4148 43.536 31.2 43.1076 31.2H29.19C28.4796 31.2 27.8334 31.6194 27.5454 32.2692L23.2206 42H13.8C13.4688 42 13.2 42.2688 13.2 42.6V43.8C13.2 44.1312 13.4688 44.4 13.8 44.4H39.18L44.259 32.9718C44.433 32.5806 44.3976 32.1324 44.1642 31.7736ZM37.62 42H25.8462L29.5794 33.6H41.3532L37.62 42Z" fill="#00081C"/>
<path d="M39.6 7.1994V6.6C39.6 6.2688 39.3312 6 39 6H37.8C37.4688 6 37.2 6.2688 37.2 6.6V11.4036V15.5994C37.2 21.564 32.3646 26.3994 26.4 26.3994H20.4C16.8438 26.3994 13.5024 27.7962 11.0022 30.33C8.54455 32.8206 7.19995 36.201 7.19995 39.7002V40.953C7.19995 40.953 7.19995 40.9536 7.19995 40.9542V43.803C7.19995 44.1342 7.46875 44.403 7.79995 44.403H8.99995C9.33115 44.403 9.59995 44.1342 9.59995 43.803V43.2006C9.59995 43.2006 9.59995 43.2 9.59995 43.1994V39.5994C9.59995 33.6348 14.4354 28.7994 20.4 28.7994H26.4C29.9562 28.7994 33.2976 27.4026 35.7978 24.8682C38.2554 22.3776 39.6 18.9972 39.6 15.498V7.2V7.1994Z" fill="#00081C"/>
</svg>
