<svg width="96" height="96" viewBox="0 0 96 96" fill="none" xmlns="http://www.w3.org/2000/svg">
<path d="M68.4007 7.2002H8.40068C7.73794 7.2002 7.20068 7.73745 7.20068 8.4002V78.0002C7.20068 78.6629 7.73794 79.2002 8.40068 79.2002H68.4007C69.0634 79.2002 69.6007 78.6629 69.6007 78.0002V8.4002C69.6007 7.73745 69.0634 7.2002 68.4007 7.2002Z" fill="#FFD300"/>
<path d="M66.0003 31.2001H64.6299C63.4671 23.0641 56.4531 16.7881 48.0003 16.7881C39.5475 16.7881 32.5335 23.0629 31.3707 31.2001H30.0003C29.3379 31.2001 28.8003 31.7377 28.8003 32.4001V39.6001C28.8003 40.2625 29.3379 40.8001 30.0003 40.8001H32.8287C35.5323 46.4653 41.3163 50.3881 48.0003 50.3881C54.6843 50.3881 60.4683 46.4641 63.1719 40.8001H66.0003C66.6627 40.8001 67.2003 40.2625 67.2003 39.6001V32.4001C67.2003 31.7377 66.6627 31.2001 66.0003 31.2001ZM48.0003 45.5881C44.0883 45.5881 40.6071 43.7065 38.4159 40.8001H46.8003C47.4627 40.8001 48.0003 40.2625 48.0003 39.6001V37.2001C48.0003 36.5377 47.4627 36.0001 46.8003 36.0001H36.2439C36.0843 35.2213 36.0003 34.4137 36.0003 33.5881C36.0003 26.9713 41.3835 21.5881 48.0003 21.5881C54.6171 21.5881 60.0003 26.9713 60.0003 33.5881C60.0003 40.2049 54.6171 45.5881 48.0003 45.5881Z" fill="#00081C"/>
<path d="M88.3283 63.5471C87.8615 62.8295 87.0719 62.3999 86.2151 62.3999H58.3799C56.9591 62.3999 55.6667 63.2387 55.0907 64.5383L46.4411 83.9999H27.5999C26.9375 83.9999 26.3999 84.5375 26.3999 85.1999V87.5999C26.3999 88.2623 26.9375 88.7999 27.5999 88.7999H78.3599L88.5179 65.9435C88.8659 65.1611 88.7951 64.2647 88.3283 63.5471ZM75.2399 83.9999H51.6923L59.1587 67.1999H82.7063L75.2399 83.9999Z" fill="#00081C"/>
<path d="M79.1999 14.3988V13.2C79.1999 12.5376 78.6623 12 77.9999 12H75.5999C74.9375 12 74.3999 12.5376 74.3999 13.2V22.8072V31.1988C74.3999 43.128 64.7291 52.7988 52.7999 52.7988H40.7999C33.6875 52.7988 27.0047 55.5924 22.0043 60.66C17.0891 65.6412 14.3999 72.402 14.3999 79.4004V81.906C14.3999 81.906 14.3999 81.9072 14.3999 81.9084V87.606C14.3999 88.2684 14.9375 88.806 15.5999 88.806H17.9999C18.6623 88.806 19.1999 88.2684 19.1999 87.606V86.4012C19.1999 86.4012 19.1999 86.4 19.1999 86.3988V79.1988C19.1999 67.2696 28.8707 57.5988 40.7999 57.5988H52.7999C59.9123 57.5988 66.5951 54.8052 71.5955 49.7364C76.5107 44.7552 79.1999 37.9944 79.1999 30.996V14.4V14.3988Z" fill="#00081C"/>
</svg>
