<svg width="34" height="34" viewBox="0 0 34 34" fill="none" xmlns="http://www.w3.org/2000/svg">
<path fill-rule="evenodd" clip-rule="evenodd" d="M17.0002 0.333252C18.3335 0.333252 19.5002 1.16659 20.0002 2.49992L33.1668 28.1666C33.8335 29.3333 33.8335 30.8333 33.0002 31.9999C32.3335 33.1666 31.1668 33.6666 29.8335 33.6666H4.00016C2.8335 33.6666 1.50016 33.1666 0.833496 31.9999C0.166829 30.8333 0.166829 29.3333 0.833496 28.1666L14.0002 2.49992C14.5002 1.33325 15.6668 0.499919 17.0002 0.333252ZM17.0002 3.99992L3.8335 29.6666C3.66683 29.8333 3.66683 30.1666 3.66683 30.3333H30.1668C30.1668 30.1666 30.1668 29.8333 30.0002 29.6666L17.0002 3.99992ZM17.0002 23.6666C17.9206 23.6666 18.6668 24.4128 18.6668 25.3333C18.6668 26.2537 17.9206 26.9999 17.0002 26.9999C16.0797 26.9999 15.3335 26.2537 15.3335 25.3333C15.3335 24.4128 16.0797 23.6666 17.0002 23.6666ZM17.0002 11.9999C18.0002 11.9999 18.6668 12.6666 18.6668 13.6666V20.3333C18.6668 21.3333 18.0002 21.9999 17.0002 21.9999C16.0002 21.9999 15.3335 21.3333 15.3335 20.3333V13.6666C15.3335 12.6666 16.0002 11.9999 17.0002 11.9999Z" fill="#2B2929"/>
</svg>
