<svg width="50" height="50" viewBox="0 0 50 50" fill="none" xmlns="http://www.w3.org/2000/svg">
<rect width="50" height="50" rx="25" fill="#1D1D1D"/>
<path d="M25 20.85C23.727 20.85 22.5061 21.3399 21.6059 22.212C20.7057 23.084 20.2 24.2667 20.2 25.5C20.2 26.7333 20.7057 27.916 21.6059 28.788C22.5061 29.6601 23.727 30.15 25 30.15C26.273 30.15 27.4939 29.6601 28.3941 28.788C29.2943 27.916 29.8 26.7333 29.8 25.5C29.8 24.2667 29.2943 23.084 28.3941 22.212C27.4939 21.3399 26.273 20.85 25 20.85ZM25 17.75C27.1217 17.75 29.1566 18.5665 30.6569 20.0199C32.1571 21.4733 33 23.4446 33 25.5C33 27.5554 32.1571 29.5267 30.6569 30.9801C29.1566 32.4335 27.1217 33.25 25 33.25C22.8783 33.25 20.8434 32.4335 19.3431 30.9801C17.8429 29.5267 17 27.5554 17 25.5C17 23.4446 17.8429 21.4733 19.3431 20.0199C20.8434 18.5665 22.8783 17.75 25 17.75ZM35.4 17.3625C35.4 17.8764 35.1893 18.3692 34.8142 18.7325C34.4391 19.0959 33.9304 19.3 33.4 19.3C32.8696 19.3 32.3609 19.0959 31.9858 18.7325C31.6107 18.3692 31.4 17.8764 31.4 17.3625C31.4 16.8486 31.6107 16.3558 31.9858 15.9925C32.3609 15.6291 32.8696 15.425 33.4 15.425C33.9304 15.425 34.4391 15.6291 34.8142 15.9925C35.1893 16.3558 35.4 16.8486 35.4 17.3625ZM25 13.1C21.0416 13.1 20.3952 13.1109 18.5536 13.1899C17.2992 13.2473 16.4576 13.41 15.6768 13.7045C14.9824 13.9649 14.4816 14.2764 13.9488 14.7941C13.448 15.2629 13.063 15.8351 12.8224 16.4681C12.5184 17.2276 12.3504 18.0414 12.2928 19.2551C12.2096 20.9662 12.2 21.5645 12.2 25.5C12.2 29.3347 12.2112 29.9609 12.2928 31.7449C12.352 32.9586 12.52 33.7754 12.8224 34.5303C13.0944 35.2045 13.4144 35.6897 13.9456 36.2043C14.4848 36.7251 14.9856 37.0366 15.6736 37.2939C16.464 37.59 17.3056 37.7543 18.5536 37.8101C20.32 37.8907 20.9376 37.9 25 37.9C28.9584 37.9 29.6048 37.8891 31.4464 37.8101C32.6976 37.7527 33.5408 37.59 34.3216 37.297C35.0144 37.0351 35.5184 36.7235 36.0496 36.2089C36.5888 35.6866 36.9104 35.2014 37.176 34.5349C37.48 33.7708 37.6496 32.9539 37.7072 31.7449C37.7904 30.0337 37.8 29.4354 37.8 25.5C37.8 21.6653 37.7888 21.0391 37.7072 19.2551C37.648 18.043 37.48 17.2245 37.176 16.4681C36.9349 15.8358 36.5505 15.2637 36.0512 14.7941C35.5676 14.3088 34.9768 13.9357 34.3232 13.7029C33.5392 13.4084 32.6976 13.2457 31.4464 13.1899C29.68 13.1093 29.0624 13.1 25 13.1ZM25 10C29.3472 10 29.8896 10.0155 31.5952 10.093C33.2992 10.1705 34.4592 10.4294 35.48 10.8138C36.536 11.2075 37.4256 11.7406 38.3152 12.6009C39.1288 13.3757 39.7583 14.313 40.16 15.3475C40.5552 16.3348 40.824 17.4601 40.904 19.1109C40.9792 20.7632 41 21.2886 41 25.5C41 29.7113 40.984 30.2368 40.904 31.8891C40.824 33.5398 40.5552 34.6636 40.16 35.6525C39.7595 36.6876 39.1298 37.6251 38.3152 38.3991C37.5151 39.187 36.5477 39.7968 35.48 40.1862C34.4608 40.5691 33.2992 40.8295 31.5952 40.907C29.8896 40.9798 29.3472 41 25 41C20.6528 41 20.1104 40.9845 18.4048 40.907C16.7008 40.8295 15.5408 40.5691 14.52 40.1862C13.4517 39.7979 12.484 39.188 11.6848 38.3991C10.8711 37.6244 10.2415 36.6871 9.84 35.6525C9.4432 34.6651 9.176 33.5398 9.096 31.8891C9.0208 30.2368 9 29.7113 9 25.5C9 21.2886 9.016 20.7632 9.096 19.1109C9.176 17.4586 9.4432 16.3364 9.84 15.3475C10.2404 14.3124 10.8701 13.3748 11.6848 12.6009C12.4843 11.8123 13.4519 11.2024 14.52 10.8138C15.5408 10.4294 16.6992 10.1705 18.4048 10.093C20.1104 10.0201 20.6528 10 25 10Z" fill="white"/>
</svg>
