<svg width="48" height="48" viewBox="0 0 48 48" fill="none" xmlns="http://www.w3.org/2000/svg">
<g id="Key">
<g id="Group">
<path id="Vector" d="M14.9521 2.508H35.34C35.67 2.508 35.94 2.778 35.94 3.108V36.636C35.94 36.966 35.67 37.236 35.34 37.236H14.9521C14.6221 37.236 14.3521 36.966 14.3521 36.636V3.108C14.3521 2.778 14.6161 2.508 14.9521 2.508Z" fill="#FFD300"/>
</g>
<g id="Group_2">
<path id="Vector_2" d="M32.4962 25.362V22.452C35.1362 20.742 36.7442 17.808 36.7442 14.634C36.7442 9.498 32.5622 5.316 27.4262 5.316C24.5882 5.316 22.0442 6.594 20.3342 8.598L18.8762 7.494C18.6122 7.296 18.2342 7.344 18.0362 7.608L5.26218 24.498C5.06418 24.762 5.11218 25.14 5.37618 25.338L14.2502 32.052C14.5142 32.25 14.8922 32.202 15.0902 31.938L22.2902 22.416C22.4642 22.53 22.6382 22.638 22.8242 22.74V41.052C22.8242 41.214 22.8842 41.364 22.9982 41.478L27.2642 45.744C27.5222 46.002 27.9482 45.972 28.1702 45.678L32.4422 39.984C32.5922 39.78 32.6042 39.504 32.4602 39.294L30.2702 36.006L32.4482 32.736C32.5802 32.532 32.5802 32.274 32.4482 32.07L30.2762 28.812L32.3942 25.698C32.4602 25.602 32.4962 25.482 32.4962 25.362ZM14.2682 29.046L8.26818 24.504L18.8702 10.494L19.0262 10.614C18.4442 11.832 18.1142 13.194 18.1142 14.634C18.1142 16.446 18.6362 18.204 19.6262 19.722C19.8842 20.118 20.1722 20.49 20.4842 20.844L14.2682 29.046ZM30.0962 21.06V24.81L27.3782 28.8L29.7842 32.406L27.3842 36.006L29.7542 39.564L27.4922 42.576L25.2242 40.308V21.24L24.5282 20.916C22.0862 19.788 20.5082 17.322 20.5082 14.628C20.5082 10.812 23.6102 7.71 27.4262 7.71C31.2422 7.71 34.3442 10.812 34.3442 14.628C34.3442 17.166 32.9582 19.5 30.7202 20.712L30.0962 21.06Z" fill="#00081C"/>
<path id="Vector_3" d="M27.3124 10.938C25.3264 10.938 23.7124 12.552 23.7124 14.544C23.7124 16.53 25.3264 18.144 27.3124 18.144C29.2984 18.144 30.9124 16.53 30.9124 14.544C30.9124 12.552 29.2984 10.938 27.3124 10.938ZM27.3124 15.744C26.6464 15.744 26.1124 15.204 26.1124 14.544C26.1124 13.884 26.6524 13.338 27.3124 13.338C27.9784 13.338 28.5124 13.878 28.5124 14.544C28.5124 15.21 27.9724 15.744 27.3124 15.744Z" fill="#00081C"/>
</g>
</g>
</svg>
