<svg width="66" height="65" viewBox="0 0 66 65" fill="none" xmlns="http://www.w3.org/2000/svg">
<circle cx="33" cy="32.5" r="32.5" fill="#00081C"/>
<g clip-path="url(#clip0_2541_2641)">
<path fill-rule="evenodd" clip-rule="evenodd" d="M38.3333 34.9167C41.5549 34.9167 44.1666 37.5284 44.1666 40.7501V45.1251C44.1666 45.9305 43.5137 46.5834 42.7083 46.5834C41.9028 46.5834 41.2499 45.9305 41.2499 45.1251V40.7501C41.2499 39.1392 39.9441 37.8334 38.3333 37.8334H26.6666C25.0558 37.8334 23.7499 39.1392 23.7499 40.7501V45.1251C23.7499 45.9305 23.097 46.5834 22.2916 46.5834C21.4862 46.5834 20.8333 45.9305 20.8333 45.1251V40.7501C20.8333 37.5284 23.4449 34.9167 26.6666 34.9167H38.3333ZM32.4999 17.4167C34.4338 17.4167 36.2885 18.185 37.6559 19.5524C39.0234 20.9199 39.7916 22.7745 39.7916 24.7084C39.7916 28.7355 36.527 32.0001 32.4999 32.0001C28.4728 32.0001 25.2083 28.7355 25.2083 24.7084C25.2083 20.6813 28.4728 17.4167 32.4999 17.4167ZM32.4999 20.3334C30.0837 20.3334 28.1249 22.2922 28.1249 24.7084C28.1249 27.1247 30.0837 29.0834 32.4999 29.0834C34.9162 29.0834 36.8749 27.1247 36.8749 24.7084C36.8749 22.2922 34.9162 20.3334 32.4999 20.3334Z" fill="white"/>
</g>
<defs>
<clipPath id="clip0_2541_2641">
<rect width="35" height="35" fill="white" transform="translate(15 14.5)"/>
</clipPath>
</defs>
</svg>
