<svg width="48" height="48" viewBox="0 0 48 48" fill="none" xmlns="http://www.w3.org/2000/svg">
<path d="M45.501 23.5343L39.228 13.5065C39.1182 13.3313 38.9262 13.2245 38.7192 13.2245H28.1922C27.861 13.2245 27.5922 13.4933 27.5922 13.8245V27.6245H26.3928V22.5665C26.3928 22.4075 26.3298 22.2551 26.217 22.1423L11.7996 7.71055C11.4216 7.33255 10.7754 7.60015 10.7754 8.13475V19.8245C10.7754 20.1557 11.0442 20.4245 11.3754 20.4245H12.5754C12.9066 20.4245 13.1754 20.1557 13.1754 19.8245V12.4835L23.9928 23.3117V27.6245H2.99221C2.66101 27.6245 2.39221 27.8933 2.39221 28.2245V36.6245C2.39221 36.9557 2.66101 37.2245 2.99221 37.2245H8.56861C9.10621 39.2879 10.9848 40.8149 13.2138 40.8149C15.4428 40.8149 17.322 39.2873 17.859 37.2245H30.141C30.6786 39.2879 32.5572 40.8149 34.7862 40.8149C37.0152 40.8149 38.8944 39.2873 39.4314 37.2245H44.9916C45.3228 37.2245 45.5916 36.9557 45.5916 36.6245V23.8523C45.5916 23.7395 45.5598 23.6297 45.5004 23.5343H45.501ZM37.722 15.6245L42.9768 24.0245H35.9922V15.6245H37.722ZM13.2138 38.4149C11.8902 38.4149 10.8138 37.3385 10.8138 36.0149C10.8138 34.6913 11.8902 33.6149 13.2138 33.6149C14.5374 33.6149 15.6138 34.6913 15.6138 36.0149C15.6138 37.3385 14.5374 38.4149 13.2138 38.4149ZM34.7868 38.4149C33.4632 38.4149 32.3868 37.3385 32.3868 36.0149C32.3868 34.6913 33.4632 33.6149 34.7868 33.6149C36.1104 33.6149 37.1868 34.6913 37.1868 36.0149C37.1868 37.3385 36.1104 38.4149 34.7868 38.4149ZM39.4374 34.8245C38.9064 32.7521 37.023 31.2149 34.7868 31.2149C32.5506 31.2149 30.6672 32.7515 30.1362 34.8245H17.8644C17.3334 32.7521 15.45 31.2149 13.2138 31.2149C10.9776 31.2149 9.09421 32.7515 8.56321 34.8245H4.79161V30.0245H29.9916V15.6245H33.5916V25.8245C33.5916 26.1557 33.8604 26.4245 34.1916 26.4245H43.1916V28.8245H40.2132C39.882 28.8245 39.6132 29.0933 39.6132 29.4245V30.6245C39.6132 30.9557 39.882 31.2245 40.2132 31.2245H43.1916V34.8245H39.4368H39.4374Z" fill="#00081C"/>
</svg>
