<svg width="48" height="48" viewBox="0 0 48 48" fill="none" xmlns="http://www.w3.org/2000/svg">
<g id="National Recovery">
<g id="Group">
<path id="Vector" d="M37.8001 3.60001H10.2001C9.86873 3.60001 9.6001 3.86864 9.6001 4.20001V31.8C9.6001 32.1314 9.86873 32.4 10.2001 32.4H37.8001C38.1315 32.4 38.4001 32.1314 38.4001 31.8V4.20001C38.4001 3.86864 38.1315 3.60001 37.8001 3.60001Z" fill="#FFD300"/>
</g>
<g id="Group_2">
<path id="Vector_2" d="M45.5009 23.5344L39.2279 13.5066C39.1181 13.3314 38.9261 13.2246 38.7191 13.2246H28.1921C27.8609 13.2246 27.5921 13.4934 27.5921 13.8246V27.6246H26.3927V22.5666C26.3927 22.4076 26.3297 22.2552 26.2169 22.1424L11.7995 7.71061C11.4215 7.33261 10.7753 7.60021 10.7753 8.13481V19.8246C10.7753 20.1558 11.0441 20.4246 11.3753 20.4246H12.5753C12.9065 20.4246 13.1753 20.1558 13.1753 19.8246V12.4836L23.9927 23.3118V27.6246H2.99209C2.66089 27.6246 2.39209 27.8934 2.39209 28.2246V36.6246C2.39209 36.9558 2.66089 37.2246 2.99209 37.2246H8.56849C9.10609 39.288 10.9847 40.815 13.2137 40.815C15.4427 40.815 17.3219 39.2874 17.8589 37.2246H30.1409C30.6785 39.288 32.5571 40.815 34.7861 40.815C37.0151 40.815 38.8943 39.2874 39.4313 37.2246H44.9915C45.3227 37.2246 45.5915 36.9558 45.5915 36.6246V23.8524C45.5915 23.7396 45.5597 23.6298 45.5003 23.5344H45.5009ZM37.7219 15.6246L42.9767 24.0246H35.9921V15.6246H37.7219ZM13.2137 38.415C11.8901 38.415 10.8137 37.3386 10.8137 36.015C10.8137 34.6914 11.8901 33.615 13.2137 33.615C14.5373 33.615 15.6137 34.6914 15.6137 36.015C15.6137 37.3386 14.5373 38.415 13.2137 38.415ZM34.7867 38.415C33.4631 38.415 32.3867 37.3386 32.3867 36.015C32.3867 34.6914 33.4631 33.615 34.7867 33.615C36.1103 33.615 37.1867 34.6914 37.1867 36.015C37.1867 37.3386 36.1103 38.415 34.7867 38.415ZM39.4373 34.8246C38.9063 32.7522 37.0229 31.215 34.7867 31.215C32.5505 31.215 30.6671 32.7516 30.1361 34.8246H17.8643C17.3333 32.7522 15.4499 31.215 13.2137 31.215C10.9775 31.215 9.09409 32.7516 8.56309 34.8246H4.79149V30.0246H29.9915V15.6246H33.5915V25.8246C33.5915 26.1558 33.8603 26.4246 34.1915 26.4246H43.1915V28.8246H40.2131C39.8819 28.8246 39.6131 29.0934 39.6131 29.4246V30.6246C39.6131 30.9558 39.8819 31.2246 40.2131 31.2246H43.1915V34.8246H39.4367H39.4373Z" fill="#00081C"/>
</g>
</g>
</svg>
