<svg width="48" height="48" viewBox="0 0 48 48" fill="none" xmlns="http://www.w3.org/2000/svg">
<path d="M11.3412 7.92004C8.96821 7.92004 7.03741 9.85084 7.03741 12.2238C7.03741 14.5968 8.96821 16.5276 11.3412 16.5276C13.7142 16.5276 15.645 14.5968 15.645 12.2238C15.645 9.85084 13.7142 7.92004 11.3412 7.92004ZM11.3412 14.1282C10.2912 14.1282 9.43741 13.2738 9.43741 12.2244C9.43741 11.175 10.2918 10.3206 11.3412 10.3206C12.3906 10.3206 13.245 11.175 13.245 12.2244C13.245 13.2738 12.3906 14.1282 11.3412 14.1282Z" fill="#00081C"/>
<path d="M26.6784 12.8406L25.3908 14.0406C25.1484 14.2668 25.1352 14.646 25.3608 14.8884L26.1786 15.7662C26.4048 16.0086 26.784 16.0218 27.0264 15.7962L31.1622 11.9424C31.419 11.7036 31.4166 11.2962 31.1574 11.0598L26.8908 7.17061C26.646 6.94741 26.2662 6.96481 26.043 7.20961L25.2348 8.09641C25.0116 8.34121 25.029 8.72101 25.2738 8.94421L26.9148 10.44H20.1834C19.428 6.31201 15.8202 3.16801 11.4852 3.13381C6.53759 3.09541 2.49299 7.20001 2.50019 12.1476C2.50319 14.1204 2.60159 15.06 4.37399 17.5152L5.60759 19.2912L10.974 26.9838C11.214 27.3282 11.7252 27.3258 11.9616 26.979L18.7524 17.0286L18.7824 16.9818C19.6686 15.5442 20.178 14.4378 20.2998 12.8406H26.6778H26.6784ZM16.7544 15.699L11.4498 23.4714L7.57739 17.9202L6.33839 16.137L6.32579 16.119C4.92119 14.1756 4.90019 13.7556 4.89959 12.1254C4.89899 8.51281 7.85339 5.50681 11.4654 5.53441C15.0342 5.56201 17.9286 8.47381 17.9286 12.0486C17.9286 13.542 17.5818 14.3526 16.7538 15.6984L16.7544 15.699Z" fill="#00081C"/>
<path d="M45.156 20.6964L37.3944 18.501C37.2882 18.471 37.1754 18.471 37.0692 18.501L30.0084 20.4816L22.3422 18.333C21.9594 18.2256 21.5802 18.5136 21.5802 18.9108V38.8824C21.5802 39.1524 21.7608 39.3894 22.0206 39.4608L29.7936 41.6016C29.898 41.6304 30.0078 41.6304 30.1122 41.6016L37.1466 39.6684L44.8518 41.5266C45.2292 41.6178 45.5922 41.3316 45.5922 40.9434V21.2736C45.5922 21.0054 45.414 20.7696 45.1554 20.6964H45.156ZM31.2084 22.6374L35.9478 21.3078L36.003 37.4934L31.2084 38.811V22.6374ZM23.9802 21.2844L28.8084 22.638V38.841L23.9802 37.5114V21.285V21.2844ZM43.1928 38.658L38.403 37.503L38.3478 21.2652L43.1928 22.6356V38.658Z" fill="#00081C"/>
</svg>
