<svg width="48" height="48" viewBox="0 0 48 48" fill="none" xmlns="http://www.w3.org/2000/svg">
<g id="Onward Travel">
<g id="Group">
<g id="Group_2">
<path id="Vector" d="M9.54306 24.5118H38.4619C39.0763 24.5118 39.5743 24.9234 39.5743 25.431V44.7324C39.5743 45.24 39.0763 45.6516 38.4619 45.6516H9.54306C8.92866 45.6516 8.43066 45.24 8.43066 44.7324V25.431C8.43066 24.9234 8.92866 24.5118 9.54306 24.5118Z" fill="#FFD300"/>
</g>
</g>
<g id="Group_3">
<g id="Group_4">
<path id="Vector_2" d="M11.3409 7.92001C8.96791 7.92001 7.03711 9.85081 7.03711 12.2238C7.03711 14.5968 8.96791 16.5276 11.3409 16.5276C13.7139 16.5276 15.6447 14.5968 15.6447 12.2238C15.6447 9.85081 13.7139 7.92001 11.3409 7.92001ZM11.3409 14.1282C10.2909 14.1282 9.43711 13.2738 9.43711 12.2244C9.43711 11.175 10.2915 10.3206 11.3409 10.3206C12.3903 10.3206 13.2447 11.175 13.2447 12.2244C13.2447 13.2738 12.3903 14.1282 11.3409 14.1282Z" fill="#00081C"/>
<path id="Vector_3" d="M26.6782 12.8406L25.3906 14.0406C25.1482 14.2668 25.135 14.646 25.3606 14.8884L26.1784 15.7662C26.4046 16.0086 26.7838 16.0218 27.0262 15.7962L31.162 11.9424C31.4188 11.7036 31.4164 11.2962 31.1572 11.0598L26.8906 7.17061C26.6458 6.94741 26.266 6.96481 26.0428 7.20961L25.2346 8.09641C25.0114 8.34121 25.0288 8.72101 25.2736 8.94421L26.9146 10.44H20.1832C19.4278 6.31201 15.82 3.16801 11.485 3.13381C6.53741 3.09541 2.49281 7.20001 2.50001 12.1476C2.50301 14.1204 2.60141 15.06 4.37381 17.5152L5.60741 19.2912L10.9738 26.9838C11.2138 27.3282 11.725 27.3258 11.9614 26.979L18.7522 17.0286L18.7822 16.9818C19.6684 15.5442 20.1778 14.4378 20.2996 12.8406H26.6776H26.6782ZM16.7542 15.699L11.4496 23.4714L7.57721 17.9202L6.33821 16.137L6.32561 16.119C4.92101 14.1756 4.90001 13.7556 4.89941 12.1254C4.89881 8.51281 7.85321 5.50681 11.4652 5.53441C15.034 5.56201 17.9284 8.47381 17.9284 12.0486C17.9284 13.542 17.5816 14.3526 16.7536 15.6984L16.7542 15.699Z" fill="#00081C"/>
<path id="Vector_4" d="M45.1559 20.6964L37.3943 18.501C37.2881 18.471 37.1753 18.471 37.0691 18.501L30.0083 20.4816L22.3421 18.333C21.9593 18.2256 21.5801 18.5136 21.5801 18.9108V38.8824C21.5801 39.1524 21.7607 39.3894 22.0205 39.4608L29.7935 41.6016C29.8979 41.6304 30.0077 41.6304 30.1121 41.6016L37.1465 39.6684L44.8517 41.5266C45.2291 41.6178 45.5921 41.3316 45.5921 40.9434V21.2736C45.5921 21.0054 45.4139 20.7696 45.1553 20.6964H45.1559ZM31.2083 22.6374L35.9477 21.3078L36.0029 37.4934L31.2083 38.811V22.6374ZM23.9801 21.2844L28.8083 22.638V38.841L23.9801 37.5114V21.285V21.2844ZM43.1927 38.658L38.4029 37.503L38.3477 21.2652L43.1927 22.6356V38.658Z" fill="#00081C"/>
</g>
</g>
</g>
</svg>
