<svg width="48" height="48" viewBox="0 0 48 48" fill="none" xmlns="http://www.w3.org/2000/svg">
<g id="Repair">
<g id="Frame">
<g id="Group">
<g id="Group_2">
<path id="Vector" d="M37.8001 9.4H10.2001C9.86873 9.4 9.6001 9.66863 9.6001 10V40C9.6001 40.3314 9.86873 40.6 10.2001 40.6H37.8001C38.1315 40.6 38.4001 40.3314 38.4001 40V10C38.4001 9.66863 38.1315 9.4 37.8001 9.4Z" fill="#FFD300"/>
</g>
</g>
<g id="Group_3">
<g id="Group_4">
<path id="Vector_2" d="M12.4034 14.3964H6.86303C6.64883 14.3964 6.45083 14.2818 6.34343 14.0964L3.57323 9.2982C3.46583 9.1128 3.46583 8.8836 3.57323 8.6982L6.34343 3.9C6.45083 3.7146 6.64883 3.6 6.86303 3.6H12.4034C12.6176 3.6 12.8156 3.7146 12.923 3.9L15.6932 8.6982C15.8006 8.8836 15.8006 9.1128 15.6932 9.2982L12.923 14.0964C12.8156 14.2818 12.6176 14.3964 12.4034 14.3964ZM7.90223 11.9964H11.3642L13.0952 8.9982L11.3642 6H7.90223L6.17123 8.9982L7.90223 11.9964Z" fill="#00081C"/>
<path id="Vector_3" d="M41.1227 44.3964H35.5823C35.3681 44.3964 35.1701 44.2818 35.0627 44.0964L32.2925 39.2982C32.1851 39.1128 32.1851 38.8836 32.2925 38.6982L35.0627 33.9C35.1701 33.7146 35.3681 33.6 35.5823 33.6H41.1227C41.3369 33.6 41.5349 33.7146 41.6423 33.9L44.4125 38.6982C44.5199 38.8836 44.5199 39.1128 44.4125 39.2982L41.6423 44.0964C41.5349 44.2818 41.3369 44.3964 41.1227 44.3964ZM36.6215 41.9964H40.0835L41.8145 38.9982L40.0835 36H36.6215L34.8905 38.9982L36.6215 41.9964Z" fill="#00081C"/>
<path id="Vector_4" d="M36.6794 12.0606L34.9382 10.3194L38.069 7.1886L39.281 5.9766C39.554 5.7036 39.5006 5.25 39.1742 5.043C38.6744 4.7262 38.15 4.4628 37.6094 4.254C34.3868 3.009 30.5864 3.684 27.9908 6.2802C25.7138 8.5572 24.9146 11.7612 25.5932 14.6892L4.97903 35.064C3.12743 36.9156 3.12743 39.9288 4.97903 41.7804C6.83063 43.632 9.84383 43.632 11.6954 41.7804L32.3102 21.4056C35.2382 22.0842 38.4422 21.285 40.7192 19.008C43.3154 16.4118 43.9898 12.612 42.7454 9.3894C42.5366 8.8488 42.2738 8.3244 41.9564 7.8246C41.7494 7.4988 41.2958 7.4448 41.0228 7.7178L39.8108 8.9298L36.68 12.0606H36.6794ZM39.0218 17.3112C37.766 18.567 36.1256 19.2096 34.4762 19.2396C33.6392 19.2546 32.7998 19.1124 32.0072 18.8118C31.787 18.7284 31.5392 18.7824 31.3724 18.9492L29.8724 20.4492L9.99803 40.0836C9.08183 40.9998 7.59143 40.9998 6.67583 40.0836C5.75963 39.1674 5.75963 37.677 6.67583 36.7614L26.5502 17.1264L28.0502 15.6264C28.2164 15.4602 28.271 15.2118 28.1876 14.9916C27.887 14.199 27.7442 13.3596 27.7598 12.5226C27.7898 10.8732 28.4324 9.2328 29.6882 7.977C31.3136 6.3516 33.5828 5.7534 35.6828 6.1812L31.9688 9.8952C31.7342 10.1298 31.7342 10.5096 31.9688 10.7436L36.2552 15.03C36.4898 15.2646 36.8696 15.2646 37.1036 15.03L40.8176 11.316C41.2454 13.416 40.6472 15.6852 39.0218 17.3106V17.3112Z" fill="#00081C"/>
</g>
</g>
</g>
</g>
</svg>
