<svg width="48" height="48" viewBox="0 0 48 48" fill="none" xmlns="http://www.w3.org/2000/svg">
<path d="M12.403 14.3964H6.8626C6.6484 14.3964 6.4504 14.2818 6.343 14.0964L3.5728 9.29818C3.4654 9.11278 3.4654 8.88358 3.5728 8.69818L6.343 3.89998C6.4504 3.71458 6.6484 3.59998 6.8626 3.59998H12.403C12.6172 3.59998 12.8152 3.71458 12.9226 3.89998L15.6928 8.69818C15.8002 8.88358 15.8002 9.11278 15.6928 9.29818L12.9226 14.0964C12.8152 14.2818 12.6172 14.3964 12.403 14.3964ZM7.9018 11.9964H11.3638L13.0948 8.99818L11.3638 5.99998H7.9018L6.1708 8.99818L7.9018 11.9964Z" fill="#00081C"/>
<path d="M41.1217 44.3964H35.5813C35.3671 44.3964 35.1691 44.2818 35.0617 44.0964L32.2915 39.2982C32.1841 39.1128 32.1841 38.8836 32.2915 38.6982L35.0617 33.9C35.1691 33.7146 35.3671 33.6 35.5813 33.6H41.1217C41.3359 33.6 41.5339 33.7146 41.6413 33.9L44.4115 38.6982C44.5189 38.8836 44.5189 39.1128 44.4115 39.2982L41.6413 44.0964C41.5339 44.2818 41.3359 44.3964 41.1217 44.3964ZM36.6205 41.9964H40.0825L41.8135 38.9982L40.0825 36H36.6205L34.8895 38.9982L36.6205 41.9964Z" fill="#00081C"/>
<path d="M36.679 12.0606L34.9378 10.3194L38.0686 7.1886L39.2806 5.9766C39.5536 5.7036 39.5002 5.25 39.1738 5.043C38.674 4.7262 38.1496 4.4628 37.609 4.254C34.3864 3.009 30.586 3.684 27.9904 6.2802C25.7134 8.5572 24.9142 11.7612 25.5928 14.6892L4.9786 35.064C3.127 36.9156 3.127 39.9288 4.9786 41.7804C6.8302 43.632 9.8434 43.632 11.695 41.7804L32.3098 21.4056C35.2378 22.0842 38.4418 21.285 40.7188 19.008C43.315 16.4118 43.9894 12.612 42.745 9.3894C42.5362 8.8488 42.2734 8.3244 41.956 7.8246C41.749 7.4988 41.2954 7.4448 41.0224 7.7178L39.8104 8.9298L36.6796 12.0606H36.679ZM39.0214 17.3112C37.7656 18.567 36.1252 19.2096 34.4758 19.2396C33.6388 19.2546 32.7994 19.1124 32.0068 18.8118C31.7866 18.7284 31.5388 18.7824 31.372 18.9492L29.872 20.4492L9.9976 40.0836C9.0814 40.9998 7.591 40.9998 6.6754 40.0836C5.7592 39.1674 5.7592 37.677 6.6754 36.7614L26.5498 17.1264L28.0498 15.6264C28.216 15.4602 28.2706 15.2118 28.1872 14.9916C27.8866 14.199 27.7438 13.3596 27.7594 12.5226C27.7894 10.8732 28.432 9.2328 29.6878 7.977C31.3132 6.3516 33.5824 5.7534 35.6824 6.1812L31.9684 9.8952C31.7338 10.1298 31.7338 10.5096 31.9684 10.7436L36.2548 15.03C36.4894 15.2646 36.8692 15.2646 37.1032 15.03L40.8172 11.316C41.245 13.416 40.6468 15.6852 39.0214 17.3106V17.3112Z" fill="#00081C"/>
</svg>
