<svg width="48" height="48" viewBox="0 0 48 48" fill="none" xmlns="http://www.w3.org/2000/svg">
<path d="M34.2001 3.6924H5.49308C5.16602 3.6924 4.90088 3.95754 4.90088 4.2846V39.0096C4.90088 39.3367 5.16602 39.6018 5.49308 39.6018H34.2001C34.5271 39.6018 34.7923 39.3367 34.7923 39.0096V4.2846C34.7923 3.95754 34.5271 3.6924 34.2001 3.6924Z" fill="#FFD300"/>
<path d="M19.589 24.0234C14.9936 24.0234 11.2556 20.2848 11.2556 15.69C11.2556 11.0952 14.9942 7.3566 19.589 7.3566C24.1838 7.3566 27.9224 11.0952 27.9224 15.69C27.9224 20.2848 24.1838 24.0234 19.589 24.0234ZM19.589 9.756C16.3172 9.756 13.6556 12.4176 13.6556 15.6894C13.6556 18.9612 16.3172 21.6228 19.589 21.6228C22.8608 21.6228 25.5224 18.9612 25.5224 15.6894C25.5224 12.4176 22.8608 9.756 19.589 9.756Z" fill="#00081C"/>
<path d="M5.42711 43.0764L4.22711 43.0728C3.89651 43.0716 3.62891 42.8028 3.62891 42.4722C3.62891 42.1362 3.62891 41.8086 3.62891 41.4774C3.62891 41.2164 3.62891 40.9524 3.62891 40.68V37.8714C3.62891 30.9156 9.26771 25.2762 16.2241 25.2762H22.8463C25.4539 25.2762 27.9859 26.0844 30.0991 27.573C30.3313 27.7368 30.4201 28.0386 30.3091 28.3002L29.8279 29.4336C29.6755 29.7924 29.2285 29.9106 28.9153 29.679C27.1663 28.3824 25.0393 27.6762 22.8463 27.6762H16.2241C10.5937 27.6762 6.02891 32.2404 6.02891 37.8714V40.68C6.02891 40.9518 6.02891 41.2146 6.02891 41.475C6.02891 41.8092 6.02951 42.1386 6.02891 42.477C6.02891 42.8088 5.75891 43.0776 5.42711 43.0764Z" fill="#00081C"/>
<path d="M36.7818 28.5534L35.9544 29.6154L34.848 31.035C34.6446 31.2966 34.6908 31.6734 34.9524 31.8768L36.372 32.9832L37.845 34.131L39.2646 35.2374C39.5262 35.4408 39.903 35.3946 40.1064 35.133L41.2128 33.7134L42.0408 32.6508C42.0984 33.6996 41.7846 34.7562 41.115 35.6148C40.3902 36.5448 39.3444 37.137 38.169 37.2828C37.8318 37.3248 37.4898 37.3278 37.1526 37.2924L35.8374 37.155L35.0184 38.193L33.1548 40.356L31.5228 42.4248C31.3176 42.6852 31.362 43.062 31.6224 43.2672L32.5644 44.0106C32.8248 44.2158 33.2016 44.1714 33.4068 43.911L35.0388 41.8422L36.9024 39.6792C37.4226 39.7338 37.947 39.7284 38.4642 39.6642C40.1988 39.4488 41.8512 38.574 43.0074 37.0902C44.7186 34.8942 44.8722 31.971 43.6344 29.6616C43.4268 29.274 43.1796 28.9038 42.8946 28.5576C42.789 28.4298 42.6324 28.3746 42.4836 28.3932C42.3696 28.4076 42.2604 28.4646 42.1824 28.5648L41.3832 29.5902L39.3192 32.2392L37.8462 31.0914L39.9102 28.4424L40.7094 27.417C40.8882 27.1872 40.809 26.8506 40.5456 26.7264C40.1388 26.5338 39.7182 26.3838 39.2904 26.277C38.4666 26.0706 37.6158 26.022 36.7836 26.1252C35.049 26.34 33.3966 27.2154 32.2404 28.6998C30.7392 30.6264 30.4368 33.1122 31.221 35.2524L27.5724 39.7434C27.351 40.0026 27.3894 40.3932 27.657 40.6044L28.5984 41.3472C28.8516 41.5464 29.2164 41.511 29.4258 41.2662L33.1056 36.7392L33.936 35.6862L33.4752 34.4274C32.9436 32.9766 33.1902 31.3866 34.134 30.1752C34.797 29.325 35.7282 28.7568 36.7818 28.5546" fill="#00081C"/>
</svg>
