<svg width="66" height="65" viewBox="0 0 66 65" fill="none" xmlns="http://www.w3.org/2000/svg">
<circle cx="33" cy="32.5" r="32.5" fill="#FFD300"/>
<g clip-path="url(#clip0_1537_5508)">
<path fill-rule="evenodd" clip-rule="evenodd" d="M32.5001 17.9167C33.6667 17.9167 34.6876 18.6459 35.1251 19.8126L46.6459 42.2709C47.2292 43.2917 47.2292 44.6042 46.5001 45.6251C45.9167 46.6459 44.8959 47.0834 43.7292 47.0834H21.1251C20.1042 47.0834 18.9376 46.6459 18.3542 45.6251C17.7709 44.6042 17.7709 43.2917 18.3542 42.2709L29.8751 19.8126C30.3126 18.7917 31.3334 18.0626 32.5001 17.9167ZM32.5001 21.1251L20.9792 43.5834C20.8334 43.7292 20.8334 44.0209 20.8334 44.1667H44.0209C44.0209 44.0209 44.0209 43.7292 43.8751 43.5834L32.5001 21.1251ZM32.5001 38.3334C33.3055 38.3334 33.9584 38.9863 33.9584 39.7917C33.9584 40.5972 33.3055 41.2501 32.5001 41.2501C31.6947 41.2501 31.0417 40.5972 31.0417 39.7917C31.0417 38.9863 31.6947 38.3334 32.5001 38.3334ZM32.5001 28.1251C33.3751 28.1251 33.9584 28.7084 33.9584 29.5834V35.4167C33.9584 36.2917 33.3751 36.8751 32.5001 36.8751C31.6251 36.8751 31.0417 36.2917 31.0417 35.4167V29.5834C31.0417 28.7084 31.6251 28.1251 32.5001 28.1251Z" fill="#00081C"/>
</g>
<defs>
<clipPath id="clip0_1537_5508">
<rect width="35" height="35" fill="white" transform="translate(15 15)"/>
</clipPath>
</defs>
</svg>
