<svg width="24" height="24" viewBox="0 0 24 24" fill="none" xmlns="http://www.w3.org/2000/svg">
<path fill-rule="evenodd" clip-rule="evenodd" d="M19.92 12.38C20.02 12.1365 20.02 11.8635 19.92 11.62C19.8724 11.4972 19.801 11.3851 19.71 11.29L12.71 4.28999C12.4563 4.03634 12.0866 3.93727 11.7401 4.03012C11.3936 4.12296 11.123 4.39361 11.0301 4.74012C10.9373 5.08662 11.0363 5.45634 11.29 5.70999L16.59 11H5C4.44772 11 4 11.4477 4 12C4 12.5523 4.44772 13 5 13H16.59L11.29 18.29C11.1007 18.4778 10.9942 18.7334 10.9942 19C10.9942 19.2666 11.1007 19.5222 11.29 19.71C11.4778 19.8993 11.7334 20.0058 12 20.0058C12.2666 20.0058 12.5222 19.8993 12.71 19.71L19.71 12.71C19.801 12.6149 19.8724 12.5027 19.92 12.38Z" fill="#00081C"/>
</svg>
