<svg width="36" height="42" viewBox="0 0 36 42" fill="none" xmlns="http://www.w3.org/2000/svg">
<path fill-rule="evenodd" clip-rule="evenodd" d="M18.9636 16.6291C19.7919 16.6143 19.0676 17.1839 19.0824 18.0122C19.0972 18.8405 18.7919 19.6143 17.9636 19.6291C17.9636 19.6291 14.7668 19.5895 13.1102 19.6191C11.4536 19.6487 10.1347 21.0156 10.1643 22.6722L10.1732 23.1722C10.188 24.0005 9.52854 24.6839 8.70025 24.6987C7.87195 24.7135 7.18849 24.054 7.17369 23.2258L7.16475 22.7258C7.10556 19.4127 9.74343 16.6788 13.0566 16.6196L18.9636 16.6291Z" fill="#2B2929"/>
<path fill-rule="evenodd" clip-rule="evenodd" d="M17.538 0.134094C19.5268 0.0985585 21.4483 0.854528 22.8797 2.2357C24.3111 3.61687 25.1353 5.5101 25.1708 7.49891C25.2448 11.6404 21.9475 15.0577 17.806 15.1317C13.6645 15.2057 10.2472 11.9084 10.1732 7.76689C10.0992 3.62541 13.3965 0.208094 17.538 0.134094ZM17.5916 3.13362C15.1067 3.17802 13.1283 5.22841 13.1727 7.71329C13.2171 10.1982 15.2675 12.1766 17.7524 12.1322C20.2373 12.0878 22.2157 10.0374 22.1713 7.55251C22.1269 5.06762 20.0765 3.08922 17.5916 3.13362Z" fill="#2B2929"/>
<path fill-rule="evenodd" clip-rule="evenodd" d="M17.4972 16.6351C16.6687 16.6316 15.9944 17.3003 15.9909 18.1288C15.9874 18.9572 16.6561 19.6316 17.4845 19.6351C17.4845 19.6351 20.3277 19.647 21.9845 19.654C23.6413 19.661 24.9788 21.0097 24.9719 22.6666L24.9698 23.1666C24.9663 23.995 25.635 24.6694 26.4634 24.6729C27.2918 24.6764 27.9662 24.0076 27.9697 23.1792L27.9718 22.6792C27.9858 19.3655 25.3108 16.668 21.9971 16.654L17.4972 16.6351Z" fill="#2B2929"/>
<path d="M0.182433 29.0654C0.265175 28.3123 0.899735 27.7412 1.65732 27.7379L33.8848 27.5975C34.7749 27.5936 35.4699 28.3657 35.3727 29.2505C35.29 30.0036 34.6554 30.5747 33.8978 30.578L1.67031 30.7184C0.780213 30.7223 0.0852179 29.9502 0.182433 29.0654Z" fill="#2B2929"/>
<path d="M0.182433 36.0239C0.265175 35.2708 0.899735 34.6997 1.65732 34.6964L33.8848 34.556C34.7749 34.5521 35.4699 35.3242 35.3727 36.209C35.29 36.9621 34.6554 37.5332 33.8978 37.5365L1.67031 37.6769C0.780213 37.6808 0.0852179 36.9087 0.182433 36.0239Z" fill="#2B2929"/>
</svg>
