<svg width="48" height="49" viewBox="0 0 48 49" fill="none" xmlns="http://www.w3.org/2000/svg">
<path d="M22.2004 14.5508H3.00039C2.66902 14.5508 2.40039 14.8194 2.40039 15.1508V27.1508C2.40039 27.4822 2.66902 27.7508 3.00039 27.7508H22.2004C22.5318 27.7508 22.8004 27.4822 22.8004 27.1508V15.1508C22.8004 14.8194 22.5318 14.5508 22.2004 14.5508Z" fill="#FFD300"/>
<path d="M20.2333 16.9514H18.2803C18.1897 16.9514 18.1069 17.0006 18.0625 17.0792L14.8021 22.9298V17.1176C14.8021 17.0258 14.7277 16.9514 14.6359 16.9514H12.6829C12.5923 16.9514 12.5095 17.0006 12.4651 17.0792L7.99391 25.1018C7.93211 25.2128 8.01251 25.349 8.13911 25.349H9.66851C9.75971 25.349 9.84371 25.2992 9.88751 25.2188L10.6705 23.7812H12.9505V25.1822C12.9505 25.274 13.0249 25.3484 13.1167 25.3484H15.2659C15.3571 25.3484 15.4411 25.2986 15.4849 25.2182L16.2679 23.7806H18.5479V25.1816C18.5479 25.2734 18.6223 25.3478 18.7141 25.3478H20.2333C20.3251 25.3478 20.3995 25.2734 20.3995 25.1816V17.1164C20.3995 17.0246 20.3251 16.9502 20.2333 16.9502V16.9514ZM12.9505 22.0736H11.6011L12.8725 19.7396C12.8929 19.7018 12.9505 19.7162 12.9505 19.7594V22.0736ZM18.5479 22.0736H17.1985L18.4699 19.7396C18.4903 19.7018 18.5479 19.7162 18.5479 19.7594V22.0736Z" fill="#00081C"/>
<path d="M43.1684 22.32L34.7228 12.936C33.587 11.6736 31.961 10.95 30.263 10.95H16.8008V10.35C16.8008 10.0188 16.532 9.75 16.2008 9.75H11.3972C11.066 9.75 10.8008 10.0164 10.8008 10.3476V10.95H8.40078C6.41598 10.95 4.80078 12.5652 4.80078 14.55V31.35C4.80078 33.3348 6.41598 34.95 8.40078 34.95H9.75258C10.2866 37.0182 12.1682 38.55 14.4008 38.55C16.6334 38.55 18.5144 37.0182 19.0484 34.95H28.9526C29.4866 37.0182 31.3682 38.55 33.6008 38.55C35.8334 38.55 37.7144 37.0182 38.2484 34.95H40.8008C42.7856 34.95 44.4008 33.3348 44.4008 31.35V25.5312C44.4008 24.3432 43.9634 23.2032 43.1684 22.32ZM28.8008 13.3494H30.263C31.2818 13.3494 32.2574 13.7838 32.939 14.541L38.3468 20.5494H30.0014C29.3396 20.5494 28.8014 20.0112 28.8014 19.3494V13.3494H28.8008ZM14.4008 36.1494C13.0778 36.1494 12.0008 35.073 12.0008 33.7494C12.0008 32.4258 13.0772 31.3494 14.4008 31.3494C15.7244 31.3494 16.8008 32.4258 16.8008 33.7494C16.8008 35.073 15.7244 36.1494 14.4008 36.1494ZM33.6008 36.1494C32.2778 36.1494 31.2008 35.073 31.2008 33.7494C31.2008 32.4258 32.2772 31.3494 33.6008 31.3494C34.9244 31.3494 36.0008 32.4258 36.0008 33.7494C36.0008 35.073 34.9244 36.1494 33.6008 36.1494ZM42.0008 26.5494H39.0008C38.6696 26.5494 38.4008 26.8182 38.4008 27.1494V28.3494C38.4008 28.6806 38.6696 28.9494 39.0008 28.9494H42.0008V31.3494C42.0008 32.0112 41.4626 32.5494 40.8008 32.5494H38.2484C37.7144 30.4818 35.8328 28.95 33.6008 28.95C31.3688 28.95 29.4872 30.4818 28.9532 32.5494H19.0484C18.5144 30.4818 16.6328 28.95 14.4008 28.95C12.1688 28.95 10.2872 30.4818 9.75318 32.5494H8.40138C7.73958 32.5494 7.20138 32.0112 7.20138 31.3494V14.5494C7.20138 13.8876 7.73958 13.3494 8.40138 13.3494H26.4008V19.3494C26.4008 21.3342 28.016 22.9494 30.0008 22.9494H40.5062L41.3846 23.925C41.7818 24.3666 42.0008 24.9366 42.0008 25.5306V26.5494Z" fill="#00081C"/>
</svg>
