<svg xmlns="http://www.w3.org/2000/svg" width="40" height="40" viewBox="0 0 40 40">
    <g fill="none" fill-rule="evenodd">
        <g>
            <g>
                <path fill="#1D1D1D" fill-rule="nonzero" d="M19.591 4.336l.412-.17.412.17c5.209 2.14 8.866 5.386 10.917 9.727 1.047 2.216 2.022 6.21 2.958 12.037l.266 1.696-.936.254c-2.512.682-4.826 1.55-6.942 2.606-2.114 1.054-4.125 2.341-6.035 3.863l-.671.534-.674-.53c-1.89-1.49-3.921-2.778-6.094-3.868-2.174-1.09-4.447-1.958-6.82-2.605l-.934-.255.266-1.695.235-1.42c.864-5.061 1.764-8.587 2.724-10.618 2.05-4.34 5.707-7.586 10.916-9.726zm.412 2.177l-.58.258c-4.195 1.929-7.11 4.664-8.79 8.217-.847 1.793-1.694 5.106-2.519 9.896l-.224 1.343c2.174.65 4.27 1.481 6.285 2.491 2.047 1.027 3.977 2.221 5.79 3.583 1.826-1.39 3.742-2.584 5.746-3.584 1.98-.987 4.115-1.818 6.404-2.493l-.336-1.986c-.789-4.443-1.598-7.538-2.406-9.25-1.68-3.553-4.595-6.288-8.79-8.217l-.58-.258z" transform="translate(-518 -512) translate(518 512) rotate(-180 20.003 19.61)"/>
            </g>
        </g>
    </g>
</svg>
