<svg width="48" height="48" viewBox="0 0 48 48" fill="none" xmlns="http://www.w3.org/2000/svg">
<g id="Tools">
<g id="Group">
<path id="Vector" d="M14.9516 2.508H26.9876C27.3176 2.508 27.5876 2.778 27.5876 3.108V41.4C27.5876 41.73 27.3176 42 26.9876 42H14.9516C14.6216 42 14.3516 41.73 14.3516 41.4V3.108C14.3516 2.778 14.6156 2.508 14.9516 2.508Z" fill="#FFD300"/>
</g>
<g id="Group_2">
<path id="Vector_2" d="M34.4576 21.156C35.0576 21.282 35.6636 21.348 36.2816 21.348C41.1056 21.348 45.0356 17.424 45.0356 12.594C45.0356 11.172 44.7476 9.9 44.1836 8.82L43.8176 8.118C43.6316 7.764 43.1636 7.686 42.8756 7.962L38.6816 11.91L37.0196 10.254L41.1596 6.3C41.4416 6.03 41.3936 5.568 41.0636 5.358L40.4156 4.95C39.2636 4.224 37.8356 3.84 36.2816 3.84C31.4576 3.84 27.5276 7.764 27.5276 12.594C27.5276 13.224 27.5936 13.842 27.7256 14.454L21.9536 20.154L16.1036 14.298L15.4736 12.414C15.4256 12.27 15.3236 12.15 15.1916 12.078L10.2296 9.384C9.99555 9.258 9.70755 9.3 9.52155 9.486L7.45155 11.556C7.25955 11.748 7.22355 12.036 7.35555 12.276L10.1636 17.286C10.2356 17.418 10.3556 17.514 10.4996 17.562L12.2636 18.144L18.0896 23.97L6.59355 35.31L6.31755 35.616L6.28155 35.67C5.69955 36.48 5.39355 37.434 5.39355 38.43C5.39355 41.04 7.51755 43.164 10.1276 43.164C11.1896 43.164 12.2216 42.816 13.0376 42.192L13.2056 42.054L24.7856 30.666L25.3076 31.188L23.9396 32.556C23.7056 32.79 23.7056 33.168 23.9396 33.402L33.1556 42.624C34.1456 43.614 35.4656 44.16 36.8636 44.16C38.2676 44.16 39.5816 43.614 40.5716 42.624C42.6176 40.578 42.6176 37.248 40.5716 35.202L31.3556 25.98C31.1216 25.746 30.7436 25.746 30.5096 25.98L29.1476 27.342L28.6616 26.856L34.4576 21.156ZM19.7936 22.278L13.6556 16.14C13.5896 16.074 13.5056 16.026 13.4156 15.996L11.9036 15.498L10.1036 12.288L10.2596 12.132L13.4156 13.848L13.9556 15.462C13.9856 15.552 14.0336 15.63 14.0996 15.696L20.2376 21.84L20.1356 21.942L19.7936 22.278ZM11.6096 40.26L11.5616 40.296C11.1356 40.62 10.5776 40.788 10.0016 40.764C8.74155 40.704 7.75155 39.618 7.79355 38.358C7.80555 37.914 7.94356 37.488 8.19556 37.122L8.30955 36.996L19.7876 25.662L23.6576 21.846L30.4316 15.162L30.2156 14.466C30.0296 13.866 29.9396 13.242 29.9336 12.612C29.9276 9.216 32.5436 6.432 35.9336 6.252C36.5156 6.222 37.0796 6.264 37.6076 6.378L34.0316 9.792C33.7916 10.026 33.7856 10.41 34.0196 10.65L38.2136 14.844C38.4416 15.072 38.8136 15.078 39.0476 14.856L42.5576 11.55C42.6056 11.88 42.6296 12.228 42.6296 12.594C42.6296 16.098 39.7796 18.948 36.2756 18.948C35.6516 18.948 35.0276 18.858 34.4396 18.678L33.7616 18.474L11.6096 40.26ZM30.9356 28.95L38.8736 36.9C39.9836 38.01 39.9836 39.816 38.8736 40.926C38.3336 41.466 37.6196 41.76 36.8636 41.76C36.1076 41.76 35.3876 41.466 34.8536 40.926L26.9096 32.976L26.9996 32.886L30.8396 29.04L30.9356 28.95ZM27.4496 29.04L26.9996 29.49L26.4956 28.986L26.9456 28.542L27.4496 29.04Z" fill="#00081C"/>
</g>
</g>
</svg>
