<?xml version="1.0" encoding="UTF-8"?>
<svg width="150px" height="150px" viewBox="0 0 150 150" version="1.1" xmlns="http://www.w3.org/2000/svg" xmlns:xlink="http://www.w3.org/1999/xlink">
    <!-- Generator: Sketch 58 (84663) - https://sketch.com -->
    <title>travel</title>
    <desc>Created with Sketch.</desc>
    <g id="travel" stroke="none" stroke-width="1" fill="none" fill-rule="evenodd">
        <g id="BEAM-ICONS-11" transform="translate(19.000000, 6.000000)" fill="#1D1F1E">
            <path d="M36.657,136.057 C36.954,136.057 37.255,135.99 37.54,135.851 C44.963,132.187 49.895,124.751 50.412,116.445 C50.48,115.343 49.642,114.394 48.54,114.325 C47.463,114.255 46.488,115.095 46.42,116.197 C45.992,123.076 41.911,129.232 35.77,132.263 C34.779,132.752 34.373,133.951 34.861,134.941 C35.209,135.647 35.918,136.057 36.657,136.057" id="Fill-1"></path>
            <path d="M27.841,136.321 C27.921,135.22 27.093,134.262 25.992,134.181 C19.15,133.681 13.068,129.504 10.121,123.279 C9.648,122.281 8.455,121.857 7.457,122.328 C6.459,122.801 6.033,123.993 6.505,124.992 C10.069,132.516 17.423,137.565 25.701,138.171 C25.75,138.174 25.799,138.176 25.848,138.176 C26.886,138.176 27.764,137.374 27.841,136.321" id="Fill-2"></path>
            <path d="M69.126,59.515 C73.432,65.741 80.522,69.459 88.087,69.459 C88.098,69.459 88.109,69.459 88.121,69.459 C88.821,69.459 89.532,69.426 90.233,69.359 C91.333,69.256 92.14,68.28 92.037,67.181 C91.933,66.081 90.957,65.27 89.858,65.377 C89.271,65.433 88.646,65.43 88.09,65.459 C81.835,65.459 75.975,62.386 72.415,57.239 C71.787,56.33 70.539,56.103 69.632,56.732 C68.724,57.36 68.497,58.606 69.126,59.515" id="Fill-3"></path>
            <path d="M59.166,29.712 C58.697,28.711 57.505,28.281 56.507,28.747 C55.506,29.215 55.075,30.405 55.542,31.405 L64.984,51.603 C65.324,52.33 66.044,52.757 66.796,52.757 C67.081,52.757 67.369,52.696 67.642,52.568 C68.643,52.101 69.075,50.91 68.607,49.91 L59.166,29.712" id="Fill-4"></path>
            <path d="M11.186,18.84 C12.004,18.84 12.773,18.333 13.067,17.518 C14.791,12.744 18.25,8.912 22.808,6.728 C24.405,5.964 26.089,5.426 27.814,5.129 C28.903,4.942 29.634,3.908 29.447,2.82 C29.26,1.731 28.229,0.995 27.138,1.187 C25.048,1.546 23.01,2.196 21.08,3.121 C15.568,5.761 11.386,10.392 9.305,16.16 C8.93,17.199 9.468,18.345 10.507,18.72 C10.731,18.801 10.96,18.84 11.186,18.84" id="Fill-5"></path>
            <path d="M99.192,61.868 C98.295,62.512 98.09,63.762 98.735,64.659 C99.126,65.203 99.739,65.492 100.361,65.492 C100.764,65.492 101.172,65.37 101.526,65.116 C107.569,60.776 111.176,53.715 111.176,46.226 C111.176,45.436 111.135,44.642 111.055,43.862 C110.942,42.764 109.964,41.958 108.861,42.078 C107.762,42.191 106.963,43.174 107.077,44.272 C107.143,44.915 107.176,45.573 107.176,46.226 C107.176,52.43 104.192,58.277 99.192,61.868" id="Fill-6"></path>
            <path d="M51.868,14.098 C49.286,8.646 44.769,4.475 39.148,2.35 C38.119,1.961 36.961,2.479 36.57,3.514 C36.179,4.547 36.701,5.701 37.734,6.092 C42.38,7.848 46.117,11.3 48.249,15.801 L50.823,21.307 C51.163,22.034 51.883,22.46 52.635,22.46 C52.919,22.46 53.208,22.399 53.481,22.271 C54.482,21.804 54.914,20.613 54.446,19.613 L51.868,14.098" id="Fill-7"></path>
            <path d="M100.201,25.614 L90.369,47.082 C89.813,48.297 88.69,49.021 87.364,49.021 C86.039,49.021 84.916,48.297 84.36,47.082 L74.529,25.614 C72.478,21.137 72.786,15.938 75.35,11.709 C77.822,7.633 81.912,5.159 86.567,4.922 C86.832,4.908 87.097,4.901 87.365,4.901 C87.631,4.901 87.898,4.908 88.159,4.921 C92.817,5.159 96.906,7.633 99.378,11.709 C101.944,15.938 102.252,21.137 100.201,25.614 Z M88.359,0.926 C87.698,0.895 87.03,0.894 86.367,0.927 C80.363,1.232 75.101,4.407 71.93,9.635 C68.676,15 68.289,21.596 70.892,27.28 L80.723,48.748 C81.93,51.384 84.475,53.021 87.364,53.021 C90.253,53.021 92.798,51.384 94.005,48.748 L103.837,27.28 C106.441,21.596 106.052,14.999 102.798,9.634 C99.628,4.406 94.366,1.232 88.359,0.926 L88.359,0.926 Z" id="Fill-8"></path>
            <path d="M87.365,23.738 C84.543,23.738 82.247,21.425 82.247,18.581 C82.247,15.737 84.543,13.424 87.365,13.424 C90.186,13.424 92.482,15.737 92.482,18.581 C92.482,21.425 90.186,23.738 87.365,23.738 Z M87.365,9.424 C82.337,9.424 78.247,13.532 78.247,18.581 C78.247,23.63 82.337,27.738 87.365,27.738 C92.392,27.738 96.482,23.63 96.482,18.581 C96.482,13.532 92.392,9.424 87.365,9.424 L87.365,9.424 Z" id="Fill-9"></path>
            <path d="M25.737,47.929 C26.151,47.908 26.568,47.897 26.988,47.897 C27.408,47.897 27.825,47.908 28.238,47.929 C35.604,48.305 42.07,52.213 45.975,58.652 C50.02,65.32 50.504,73.517 47.271,80.576 L32.443,112.954 C31.434,115.156 29.395,116.471 26.988,116.471 C24.581,116.471 22.542,115.156 21.533,112.954 L6.705,80.576 C3.471,73.517 3.956,65.32 8,58.652 C11.906,52.213 18.372,48.305 25.737,47.929 Z M4.581,56.578 C-0.153,64.381 -0.718,73.975 3.068,82.242 L17.896,114.62 C19.549,118.229 23.033,120.471 26.988,120.471 C30.943,120.471 34.426,118.229 36.08,114.62 L42.099,101.477 L44.42,106.376 C44.761,107.098 45.48,107.52 46.228,107.52 C46.515,107.52 46.807,107.458 47.084,107.327 C48.082,106.854 48.507,105.661 48.035,104.663 L44.275,96.726 L50.908,82.242 C54.694,73.975 54.129,64.381 49.395,56.578 C44.792,48.987 37.154,44.379 28.439,43.935 C27.476,43.886 26.498,43.886 25.535,43.935 C23.532,44.037 21.59,44.369 19.725,44.897 L13.778,32.342 C13.04,30.784 12.513,29.144 12.213,27.467 C12.019,26.38 10.99,25.652 9.893,25.85 C8.806,26.044 8.082,27.083 8.276,28.17 C8.637,30.196 9.273,32.177 10.163,34.055 L15.958,46.289 C11.333,48.432 7.39,51.946 4.581,56.578 L4.581,56.578 Z" id="Fill-10"></path>
            <path d="M26.988,60.75 C31.804,60.75 35.722,64.695 35.722,69.545 C35.722,74.394 31.804,78.34 26.988,78.34 C22.171,78.34 18.253,74.394 18.253,69.545 C18.253,64.695 22.171,60.75 26.988,60.75 Z M26.988,82.34 C34.009,82.34 39.722,76.6 39.722,69.545 C39.722,62.49 34.009,56.75 26.988,56.75 C19.966,56.75 14.253,62.49 14.253,69.545 C14.253,76.6 19.966,82.34 26.988,82.34 L26.988,82.34 Z" id="Fill-11"></path>
        </g>
    </g>
</svg>