<?xml version="1.0" encoding="UTF-8"?>
<svg width="150px" height="150px" viewBox="0 0 150 150" version="1.1" xmlns="http://www.w3.org/2000/svg" xmlns:xlink="http://www.w3.org/1999/xlink">
    <!-- Generator: Sketch 58 (84663) - https://sketch.com -->
    <title>uninsured-driver</title>
    <desc>Created with Sketch.</desc>
    <g id="uninsured-driver" stroke="none" stroke-width="1" fill="none" fill-rule="evenodd">
        <path d="M7.616,91.444 C7.828,90.865 8.248,90.406 8.8,90.15 L15.704,86.947 C16.016,86.803 16.344,86.734 16.666,86.734 C17.534,86.734 18.365,87.227 18.752,88.064 L35.517,124.212 C35.773,124.764 35.797,125.386 35.585,125.965 C35.373,126.543 34.952,127.003 34.4,127.259 L27.495,130.462 C26.345,130.996 24.98,130.492 24.448,129.345 L7.684,93.197 C7.428,92.645 7.404,92.022 7.616,91.444 Z M30.192,89.534 C34.777,87.239 41.705,83.77 43,83.242 C56.695,77.658 66.83,81.378 69.608,82.65 C70.623,83.117 71.809,83.655 73.025,84.147 L92.692,92.1 C94.286,92.745 95.542,93.907 96.136,95.286 C96.902,97.068 96.67,99.042 95.449,101.152 C92.404,106.407 85.396,102.639 85.105,102.479 C85.05,102.448 84.993,102.421 84.936,102.396 L65.251,93.751 C64.244,93.306 63.061,93.768 62.617,94.778 C62.172,95.789 62.632,96.969 63.644,97.413 L83.245,106.021 C85.015,106.988 87.734,107.94 90.529,107.94 C93.421,107.94 96.396,106.918 98.481,103.838 L98.895,103.706 C101.113,103.179 103.263,102.49 105.337,101.653 L129.373,93.992 C129.43,93.975 129.491,93.952 129.546,93.929 C129.599,93.906 134.849,91.732 138.686,93.385 C140.27,94.066 141.384,95.314 142.093,97.2 C144.81,104.434 139.01,106.976 138.347,107.239 C138.145,107.317 117.947,115.108 97.813,123.491 C78.541,131.516 67.674,128.315 67.558,128.28 L37.619,118.988 C37.577,118.975 37.534,118.973 37.492,118.962 L25.036,92.104 C25.989,91.637 27.696,90.784 30.192,89.534 Z M46.03,58.809 C46.03,35.564 64.941,16.653 88.185,16.653 C111.43,16.653 130.341,35.564 130.341,58.809 C130.341,76.038 119.599,91.515 104.012,97.878 L100.447,99.014 C100.804,96.828 100.374,95.015 99.81,93.705 C98.787,91.331 96.792,89.444 94.192,88.392 L74.525,80.438 C73.387,79.978 72.251,79.463 71.275,79.015 C68.077,77.549 60.5,74.968 50.144,76.956 C47.425,71.275 46.03,65.179 46.03,58.809 Z M20.819,131.028 C21.883,133.322 24.162,134.674 26.539,134.674 C27.424,134.674 28.324,134.486 29.178,134.091 L36.082,130.888 C37.604,130.183 38.761,128.923 39.341,127.341 C39.766,126.182 39.838,124.954 39.571,123.783 L66.355,132.095 C66.579,132.167 69.175,132.963 73.933,132.963 C79.53,132.962 88.118,131.861 99.35,127.185 C119.433,118.822 139.583,111.049 139.781,110.974 C143.336,109.612 149.179,104.689 145.837,95.794 C144.738,92.868 142.857,90.818 140.246,89.701 C135.117,87.507 128.959,89.849 128.079,90.207 L118.973,93.109 C128.457,84.536 134.341,72.151 134.341,58.809 C134.341,33.358 113.635,12.653 88.185,12.653 C62.735,12.653 42.03,33.358 42.03,58.809 C42.03,65.498 43.432,71.913 46.174,77.917 C44.658,78.359 43.101,78.882 41.491,79.539 C40.161,80.081 34.776,82.767 28.402,85.957 C26.285,87.016 24.386,87.967 23.352,88.475 L22.381,86.381 C20.92,83.232 17.17,81.859 14.022,83.318 L7.118,86.521 C5.596,87.227 4.439,88.486 3.86,90.068 C3.281,91.65 3.35,93.359 4.055,94.881 L20.819,131.028 L20.819,131.028 Z" id="Fill-1" fill="#1D1F1E"></path>
        <path d="M25.16,120.84 C25.539,121.22 26.039,121.42 26.57,121.42 C26.84,121.42 27.1,121.37 27.34,121.27 C27.579,121.17 27.8,121.03 27.99,120.84 C28.169,120.649 28.32,120.43 28.419,120.189 C28.52,119.95 28.57,119.689 28.57,119.43 C28.57,118.899 28.36,118.39 27.99,118.01 C27.24,117.27 25.9,117.27 25.16,118.01 C24.789,118.39 24.57,118.899 24.57,119.43 C24.57,119.689 24.619,119.95 24.72,120.189 C24.82,120.43 24.97,120.649 25.16,120.84" id="Fill-2" fill="#1D1F1E"></path>
        <path d="M72.236,74.189 L97.118,74.189 C98.222,74.189 99.118,73.294 99.118,72.189 C99.118,71.085 98.222,70.189 97.118,70.189 L79.238,70.189 L85.068,58.065 L93.36,58.065 C94.464,58.065 95.36,57.17 95.36,56.065 C95.36,54.961 94.464,54.065 93.36,54.065 L86.991,54.065 L91.993,43.663 L92.353,43.017 C93.161,41.561 94.519,40.547 95.986,40.304 C96.691,40.187 97.402,40.214 98.106,40.387 C99.477,40.723 100.635,41.572 101.368,42.779 C102.099,43.986 102.318,45.407 101.982,46.778 C101.719,47.852 102.375,48.934 103.449,49.196 C104.518,49.455 105.604,48.803 105.867,47.729 C107.084,42.756 104.03,37.72 99.057,36.502 C97.826,36.2 96.571,36.152 95.33,36.358 C92.632,36.806 90.273,38.524 88.857,41.074 L88.469,41.771 C88.45,41.806 88.432,41.841 88.414,41.876 L82.552,54.065 L76.056,54.065 C74.952,54.065 74.056,54.961 74.056,56.065 C74.056,57.17 74.952,58.065 76.056,58.065 L80.629,58.065 L74.798,70.189 L72.236,70.189 C71.131,70.189 70.236,71.085 70.236,72.189 C70.236,73.294 71.131,74.189 72.236,74.189" id="Fill-3" fill="#1D1F1E"></path>
    </g>
</svg>